<svg xmlns="http://www.w3.org/2000/svg" viewBox="0 0 290.1 331"><defs><style>.cls-1{fill:#fff;}.cls-2{fill:#293549;}.cls-3{fill:#3bab5e;}.cls-4{fill:#f7f8f9;}.cls-5{fill:#424143;opacity:0.4;}.cls-5,.cls-6{isolation:isolate;}.cls-6{fill:#221f1f;opacity:0.1;}</style></defs><title>Recurso 2</title><g id="Capa_2" data-name="Capa 2"><g id="Página_inicial_movil" data-name="Página inicial movil"><path class="cls-1" d="M0,88.9A13.9,13.9,0,0,1,6.3,78L138.8,1.5a13.8,13.8,0,0,1,12.5,0L283.8,78a13.9,13.9,0,0,1,6.3,10.9v153c0,4-2.8,9-6.3,10.9L151.3,329.3a13.8,13.8,0,0,1-12.5,0L6.3,252.8C2.8,250.9,0,245.9,0,241.9Z"/><path class="cls-2" d="M69.2,55.5a9,9,0,0,1,9-9H212.3a8.9,8.9,0,0,1,8.9,9v220a8.9,8.9,0,0,1-8.9,9H78.2a9,9,0,0,1-9-9Z"/><rect class="cls-3" x="78.2" y="77.7" width="134.1" height="168.07"/><path class="cls-4" d="M150.7,61.1H139.6a.5.5,0,0,1-.5-.5.5.5,0,0,1,.5-.5h11.1a.5.5,0,0,1,0,1Z"/><path class="cls-4" d="M154.3,63.6H136.1a.5.5,0,0,1-.5-.5.5.5,0,0,1,.5-.5h18.2a.5.5,0,0,1,.5.5C154.8,63.4,154.7,63.6,154.3,63.6Z"/><path class="cls-4" d="M150.7,65.9H139.6a.5.5,0,0,1,0-1h11.1a.5.5,0,0,1,0,1Z"/><path class="cls-4" d="M145.2,276.4a9.6,9.6,0,0,1-9.6-9.8,9.5,9.5,0,0,1,9.6-9.6,9.6,9.6,0,0,1,9.6,9.6A9.8,9.8,0,0,1,145.2,276.4Zm0-18.6a8.8,8.8,0,1,0,8.8,8.8A8.9,8.9,0,0,0,145.2,257.8Z"/><rect class="cls-4" x="89.2" y="86.6" width="111.8" height="31.63"/><rect class="cls-5" x="128.5" y="128.7" width="72.7" height="31.63"/><rect class="cls-5" x="89.2" y="128.3" width="32" height="31.96"/><rect class="cls-5" x="128.5" y="168.1" width="72.7" height="31.63"/><rect class="cls-5" x="89.2" y="167.7" width="32" height="31.96"/><rect class="cls-5" x="128.5" y="207.3" width="72.7" height="31.63"/><rect class="cls-5" x="89.2" y="207.1" width="32" height="31.96"/><path class="cls-6" d="M283.8,78,151.2,1.5a11.9,11.9,0,0,0-6-1.5V331a11.9,11.9,0,0,0,6-1.5L283.6,253a13.9,13.9,0,0,0,6.3-10.9V88.9C290.1,84.9,287.3,80,283.8,78Z"/></g></g></svg>