<svg xmlns="http://www.w3.org/2000/svg" viewBox="0 0 90 90"><defs><style>.cls-1{fill:#00c200;}.cls-2{fill:#fff;}</style></defs><title>icono</title><g id="Capa_2" data-name="Capa 2"><g id="Página_inicial_movil" data-name="Página inicial movil"><circle class="cls-1" cx="45" cy="45" r="45"/><g id="bullhorn"><path class="cls-2" d="M67.4,45.8V59.3a2.9,2.9,0,0,1-2.8,2.9,3.4,3.4,0,0,1-1.8-.7l-7.5-6a21.6,21.6,0,0,0-13.4-4.7H39.4a13.5,13.5,0,0,0-.4,2.9,11,11,0,0,0,2.4,6.8A2.8,2.8,0,0,1,39.1,65H32.5A2.7,2.7,0,0,1,30,63.5a21.7,21.7,0,0,1-2.3-9.8,26.4,26.4,0,0,1,.2-2.9h-3a5.7,5.7,0,0,1-5.7-5.7V36.6A5.7,5.7,0,0,1,24.9,31h17a21.6,21.6,0,0,0,13.4-4.7l7.5-6.1a3.2,3.2,0,0,1,1.8-.6,2.9,2.9,0,0,1,2.8,2.9V36a5.6,5.6,0,0,1,0,9.8ZM61.8,28.4l-3,2.3a27.1,27.1,0,0,1-16.9,5.9v8.5a27.2,27.2,0,0,1,16.9,6l3,2.3Z"/></g></g></g></svg>