<svg xmlns="http://www.w3.org/2000/svg" viewBox="0 0 341 310.9"><defs><style>.cls-1{fill:#d1ecfb;}.cls-2{fill:#57d357;}.cls-3{fill:#c1e2de;}.cls-4{fill:#0e303f;}.cls-5{fill:#fff;}.cls-6{fill:#103754;}.cls-7{fill:#fd6120;}.cls-8{fill:#b7c9cb;}</style></defs><title>mundoRecurso 7</title><g id="Capa_2" data-name="Capa 2"><g id="Pagina_inicial_escritorio" data-name="Pagina inicial escritorio"><g id="Porque_somos_tu_mejor_elección" data-name="Porque somos tu mejor elección"><path class="cls-1" d="M185.4,0C99.7,0,30,69.7,30,155.5S99.7,310.9,185.4,310.9,341,241.3,341,155.6,271.1,0,185.4,0Z"/><path class="cls-2" d="M332.7,197.8c-2,0-4.7,1-4.7,1.7s-2.8,1.9-3.8,2.4-2.6,3.2-3.1,4.1-2.7.7-3.5,1-2.5,1.8-2.5,2.6-.5.6-1-.3l-1.2,1.2-1.3,1.4c-.8,2.4-3.2,5.4-4.1,5.6s-1,4.4-1,6a8.1,8.1,0,0,0,1.4,4.6v1.4l.2,2.6a5,5,0,0,0,1.6,4.3c.5.3,4.3-.7,5.7-1l2-.8a156.4,156.4,0,0,0,16-37.1A.9.9,0,0,1,332.7,197.8Z"/><path class="cls-2" d="M76,201.7c-.2.5,2.6,3.3,3.6,4.3s3.3,5.6,3.8,7.1a11.9,11.9,0,0,1,0,4.6,6.9,6.9,0,0,0,.5,2.4c.1.5-.9,5-.5,6.9s-2.1,7.5-2,10.4,1.3,6.5,1.8,6.3.6,2.5-.2,2.9-1.9,2.5-1.3,2.6,0,2.4.1,3.3.9,6.8,1,8.3,2.3,5,2.7,6.2.9,3.5,1,3.8l.3.8a9.4,9.4,0,0,1,2.3,1c.4.3,3.8.1,4.9-.1s.1-1.2-.3-1.7-.9-3.1-1.5-3.3-.8-3.6-.3-4.4,2.4-1.9,2.7-2.6.2-3.4-.3-3.9.1-3.9-.2-5.7,3-3.3,3.2-4.7,4-2.9,4.7-3.6,1.6-4.6,1.2-5.4,1.3-1.6,2.1-1.6a7.6,7.6,0,0,0,2-.6c.2,0,1.2-1.7,1.7-2.1s1.5-4.6,2.4-5.2a7.2,7.2,0,0,0,1.7-3.9,9.6,9.6,0,0,1,1.9-3.6c.5-.7,3.9-2.3,4.6-2.5s1.6-5.8,1.8-7.8a52.9,52.9,0,0,1,1.3-5.4c0-.6,1.1-1.2,1.4-1.4s1-2.8,1.5-3.4,2.5-3,2.5-3.5a11.4,11.4,0,0,1,.7-3.2v-3.4c-.6-1.7-2.5-3.8-3-3.3s-2.5-1.4-3.6-1.9a23.4,23.4,0,0,0-4.5-.7c-.7,0-3-1.9-4.1-2.2a37.4,37.4,0,0,1-4.3-1.1c-.4-.3-1.1-4.4-3.3-5.7s-6.1-4.5-6.5-5.6-4.6-3.5-6-4.2-3.2-.9-3.4-.6-1.9-2.2-2.7-2.9-3.4-1.2-3.5-.7-1.8.2-2.1-.2-1.7.2-2.3.4-2.7,3.4-3.7,4.2-2.1-.7-2.8-1a6.1,6.1,0,0,0-3.7,1c-.7.4-2.1-3.4-1.8-5.2s-1.6-5.2-3.1-5.3-1.9-3.8-1.7-5.2-2.7-2.2-3.5-2.3-2.5,1.8-2.9,2.8-7.1-1.3-6.3-5.4,4-8.4,4.8-8.8,5.1-.7,6.1-.1a1.8,1.8,0,0,0,2-.3,15.4,15.4,0,0,1,4.8.5c1,.4,2.6,4.6,3.7,5s1.5-2.7,1.7-3.4a8.9,8.9,0,0,0-.8-3.3c-.2-.5,1.8-5.6,3.5-6.4s3.4-3.6,3.2-4.1,1.4-.9,1.7-1.1,0-4.3.6-5.1a17.5,17.5,0,0,1,4.8-3.2c1-.4,1.6-2.9,1.3-3.4s2.6-2.9,4.1-3.5,2.8.9,2.5,1l3.2-1.8c.9-.5,0-2.6-.6-3.1s-.3-2.7.5-2.9,1.5-2.1,1.3-2.5,3.3.4,4.6-.7.4,2.4-.5,3.8a1.6,1.6,0,0,0,.4,2.2,1.6,1.6,0,0,0,.9.3,1.6,1.6,0,0,1,1.5,1.1c.1.4,1.4-.4,2.3,0s1.5-1.2,1.5-2-2.1-2.2-2.5-3.2a59.5,59.5,0,0,1-.4-7.3c0-1-1.5-2.8-1.9-2.5s-1.4-2.7-2.1-3.4a3.4,3.4,0,0,1-.9-2.7c0-.4-2.5-3.1-3.2-4.4s-1.4-1-1.5-.4-1.8.7-2.6.6-1.3-3-1.3-4-3.3-1.2-3.8-2.1-2.7-.4-3.1-1a3.8,3.8,0,0,0-2.5-.9c-.4.2-.3,8-.6,10s-2.1,3.9-2.8,3.8-.2,1.4.1,1.3-1.2,2.2-1.4,3.8-1.8,0-2-1.4-1.8-3.4-2.2-3-1.3-.5-1.8-.2-3.3-1.7-4.5-2.3-1.8-4.3-2.6-4.6-.1-.8-.1-1.3,2.3-2.7,3-3.5a61,61,0,0,1,4.2-4.9c1.1-.8,1.8-2.6,1.6-2.9s4.4-1.8,5.6-2.2,2.2-3.8,2.5-4.8a4.4,4.4,0,0,0-1.4-3c-.5-.2,1.7-.3,2.5.1s3-.6,4-.2l4.1,2.5L91.3,61l-.5,4.3c-3.6,1.4-4.6,4-3.4,3.9s6.9,2.4,8.5,3.6,2.1-1.7,2.6-2.6a7.2,7.2,0,0,0,0-4.1c-.5-.6,1.8-.4,2.4.2s1.4-.6,1.8-.9.7-2.6,1-3-1-.9-1.1-1.6-2.6-1.7-3.4-2.1a2.1,2.1,0,0,1-.5-2.5c.3-.3-.2-2.6-.7-3.2s-3-1.4-3.9-1.4-1.8-2-2.3-2.3a19.6,19.6,0,0,0-4.8-.5c-.8.3-2.4-2.4-3.8-1.5s-3-.9-3.6-1.4-4,3.3-3.9,5.7,1.2,5,1.8,5.1-.2,2.3-.7,3-2-.7-1.5-1.2-1.4-3.3-2.1-4.3-2.2-1.4-3.3-1.9l-2.1,2.2a5.5,5.5,0,0,1,.3,3.1c-.5,1.5-1.8,1.7-1.8,1.1a2,2,0,0,0-1.5-.6,155.1,155.1,0,0,0-35,81.3,7.2,7.2,0,0,1,1.8,2.5c.5,1.4,2.8,2.3,3.3,2.6s.5-2.6.2-3.3.6-1.2.6-.7,2.2,3,2.9,4,1.4,6.8,2.2,8.1,7.5,3.9,9.7,4.3a12.3,12.3,0,0,1,5.4,3.6c.4.7,3.3,1,3.9,1.3l2.7,2.7a4.5,4.5,0,0,1,1.1,1.9c0,.4,3.8,1.8,4.8,2.8a2.3,2.3,0,0,0,2.8.3c.2-.4,1,2.1,1.4,3a4.5,4.5,0,0,1,.2,3.2c-.4.3-.8,4.1-1.5,4.9s-2,6.4-1.7,7.5a8.2,8.2,0,0,0,2.9,3.7.9.9,0,0,1,.3,1.2l-.4.4c-.5,0-.3,5.4,1.1,6.2S76.2,201.4,76,201.7Z"/><path class="cls-2" d="M83.6,41.5c1.8-.4,4.9-.9,5.1-1.4a3.8,3.8,0,0,0-.1-2.1h.9c.7,0,1.9-3.8,2.6-4.7S97,31.1,98,30.5s3.3-2.7,4-3,2.2-2.2,1.9-2.6,2.9-2.2,4.1-2.7,1.8-1.7,1.3-1.9-6.7,3.4-12.6,6.7A168.1,168.1,0,0,0,77.5,42.4Z"/><path class="cls-2" d="M196.2,235c1.9-1.1,5.3-6.1,6.4-7.1s1.9-4.8,2.2-5.6a5.3,5.3,0,0,1,2.4-2.3c.6-.3,2.6-8.5,4.4-10.4s3.8-10.7,3.6-13.9,1.1-9.2,1.5-10.6a15,15,0,0,1,3.3-4.6,97,97,0,0,0,6.2-9.1c1.4-2.2,2.7-7.1,2.4-8.3s-3.3-2-3.8-1.4-3.4,1-4.3,1-2.9-4.8-4.1-5.7-2.4-6.5-3.1-7.5l-3.4-4.2c-.7-.6-.8-3.5-.9-4.3s1.2.5,1.5,1.7,3.4,5.8,4.4,7.4,3.7,6.6,4.4,8.2,6.6.7,8.6-.2,4.4-2.4,4.5-3,3.1-1.9,4-2.5,1.6-4.3,2.1-4.8-.4-4.1-1.1-5.1-3.7-1.8-4.4-1.4-1.9-2.3-2.4-3.3-2.8-2.2-3-2.9a2.1,2.1,0,0,1,1-2c.3-.2,4.7,2.8,5.9,4.4a29.2,29.2,0,0,1,2.9,4.8c.2.5,3.7.6,4.5.1a1.2,1.2,0,0,1,1.7.1l.2.2h1l3.8-.5a7.2,7.2,0,0,1,2.2,4,4.6,4.6,0,0,0,1.8,2.1c.7.1,1.2,2.6,1.4,3.3a38.8,38.8,0,0,1,2.8,5.8,52.8,52.8,0,0,0,2.7,5.3,12.3,12.3,0,0,1,.8,3.8,2.6,2.6,0,0,0,2.2,1.8c.8-.1,2.6-5.5,3.1-7.5s1.7-3.7,2.1-3.7.7-1.1.7-1.5,2.1-.4,2.3-.9.8-4.2,1.6-4.7a39.9,39.9,0,0,1,4.4-2.7c.9-.3,3.5,1.8,4.1,2.8a8.7,8.7,0,0,1,.7,3.9c-.2.3,1.3,2.6,2.6,2.6s1.7,1.7,1.8,2.2,1.8,2.4,2.1,3.1a6.9,6.9,0,0,1,0,3.5,19.7,19.7,0,0,0,.1,4.2,44.6,44.6,0,0,0,5.8,6.1c1.6,1.2,2.3-2.6,1.5-3.7s-3.5-3.9-4-4.7-.7-4.1-.5-5,2.4.4,3.2,1.1a8.6,8.6,0,0,1,2,2.6c0,.4,5.4-2.6,5.7-5.8s2-7.1,2.1-8a2.3,2.3,0,0,0-1-2.1c-.5-.1.8-2.5,2.3-2.5s5.2-4,6.1-5.7a13.6,13.6,0,0,1,2.8-3.1,27.3,27.3,0,0,0,1.5-5.6c.3-1.5-.9-4-1-4.9a10.1,10.1,0,0,0-1.8-3.2,7.5,7.5,0,0,1-.4-3.3c.1-.3,1.6-.8,1.7-1.2s1.6-2,1.5-2.8.9,1,1.7,1.6,1.5,4.5,2.4,4.9,4.4-4.2,4-7.2,1-6.8,1.9-7.1,2.3-2.7,3.4-4.4a154.6,154.6,0,0,0-38.3-60.3h-.6l-1.3-.3c-2.2-.4-3.5-2.8-3.1-3.3a1.7,1.7,0,0,0,0-1c-1.3-1.1-2.5-2.3-3.8-3.3h-2.8a10.7,10.7,0,0,1-4.7-1.4c-.5-.5-2.2.4-2.4,1.4s-3.1,1.4-3.3,2.2a1.7,1.7,0,0,1-2.1.4c-.3-.4-3.2,1-4.5,1.1a25.1,25.1,0,0,0-4.6,1.6,6.3,6.3,0,0,0-2.3,2.3,7.6,7.6,0,0,1-2.6,1.8c-.6.3-.5,2.8.2,3.3s-1.3-.4-2.3-.8-1.9,1.1-2.3,1.7-1.1-.4-1.1-1.2-2.3-1.3-2.6-.7-1.9-.3-2.5-.6-3.6,2.7-4.7,3.8-6.3,1.9-7.2,1.6-1.9,2.2-1.1,2.4h-3.1a27.6,27.6,0,0,0-7.4,2.8,1.2,1.2,0,0,1-1.7-.1.9.9,0,0,1-.3-.7c0-.6-1.8-1.2-2.2-1.3s-1.6,3.5-2.5,4.1-2-2.8-4.2-3.4S202,55,201,54.8s-2.9-2.3-3.5-2.9-3.4-1-4.3-1a14.4,14.4,0,0,0-4.5,2.2c-.8.5-1.9.4-2.4.8l-4.9,4.3c-1.2,1-3.5,5.3-4.1,6.4a2.7,2.7,0,0,1-2.2,1.2,2.4,2.4,0,0,0-.7,1.6c0,.4-3.7,2.3-4.2,4s.5,5.6.5,6.9,1.3,4.2,2.3,4.2.6,2.3.2,3,.7,1.3.6,1.9-2.6,1.3-3.4,1.6a5.2,5.2,0,0,0-2.2,2.8c-.1.5-2.6,1-3.5,1.7a8.7,8.7,0,0,1,.7-1.7,3,3,0,0,0-.5-2.8c-.4-.4-.6-4.8-1.3-5.8a24.8,24.8,0,0,0-2.5-3c-.4-.3.2-1.4.5-2s-2.1-.7-2.7-.4-1,4.8-1.2,6a4,4,0,0,0,1.6,3.2c.4.1.2,2.2-.6,2.3s-1.6,3.2-1.1,4-.6,2.1-1,2.5,3.1.1,4.8.1a4,4,0,0,1,2.8.8c-.1.1-3.1.5-3.7,1.2s-2.6,2-2.9,2.6.7,1.7,1.4,1.7,1.8,2.9,2.5,3.4a2.4,2.4,0,0,1,.1,2.6c-.2.4-4.3-.2-5.8.1s-3.5,3.6-3.6,4.8a36.6,36.6,0,0,0,.5,5.7c.1,1,3.3,1.6,4,2s3.7,0,4.4.4,2.6-3.2,3.1-4.7,3.7-4.5,4.3-5.6,4.2-.9,5.1-1.5.4,2.7.8,4.5,3.8,1.6,3.2-.1.3-2.4.4-1.8,3.4,1.9,4.1,2.8.4,2.9-.3,2.9-.7,2.1,0,2.4,1.8-2.4,2.6-2.9,1.5-2.1,1.1-2.2.7-1.7,1.1-1.1-1.6-3.3-3.1-4.7-.3-.8,2.1,1.3l1.8,2.5a22.6,22.6,0,0,1,1.1,2.2l.5.7a17.8,17.8,0,0,1,.7,3.9,2.6,2.6,0,0,0,2.2,1.8,1.5,1.5,0,0,1,1.3.4c-.1.2.6,1.7,1.4,1.7s1.2-2.1.3-2.1-.7-3.1-.8-4.6.6-2.4.9-2.4,0,2.8,0,3.4a12.9,12.9,0,0,0,.8,2.8l.9.7,1.9,1.4c2.8-.7,6.6-.1,6.4.5s2,.7,2.1-.2.2.1.2.6-1.8,3.2-2.1,4.3-6.8.3-9.6.1-6.9.7-7.2,1.6-4.5-1.9-6.6-2.7-3.5-3.8-3.9-4.3.4-1.3.1-2-4.7-.7-6-.2-8.2,1.2-9.7,1.9-4,0-4.8-.1-2.6,2.1-3.5,2.4-2,3.6-2.6,7.1l-1.2,2.3-.8,1.6c-2.2,1.7-4.7,7.4-5.4,8.6s-1.4,9.4-1.4,12.2,2.4,8.6,3.1,10.3,4.8,5.1,6.3,6,5.9,1,7.4,1a4.4,4.4,0,0,0,3.7-3.1l2.1.2h1c0,1.2,3.2,2.1,4,2.6a6.9,6.9,0,0,0,3.5-.1c.5-.2,1.3,5.4.9,7.1s1.1,7.4,1.5,9.2,2.5,6.5,2.6,8.1-1.1,7.4-1.3,9.4,2.4,7.5,3.1,9.4a33.3,33.3,0,0,1,1.2,6.9c0,.9,2.9,6.8,3.6,9.1S194.1,236.2,196.2,235Z"/><path class="cls-2" d="M324.2,164.4c.1.5,2-1,3.2-1.2s1.8-3.2.9-3.4-1.9-2.5-2.6-2.8-1.8,1-1.8,1.9-2,1.3-2.5,2-.3,1.3,0,1.3A9.7,9.7,0,0,1,324.2,164.4Z"/><path class="cls-2" d="M322,180.8c.6-.2,0-3.1-1.2-3.3s-4.4,3.9-3.8,6.2,1.2,2.3,1.5,1.7,2.3.4,2.8.5.6-.4,0-1.3S321.4,181.1,322,180.8Z"/><path class="cls-2" d="M315.6,177.9c.1-1,.4-4.3.5-5s-1.8-2.6-2.8-2.9-4,6.4-6.3,7.6-3,5.4-2.4,6.3,5.2,1.4,6,2.1,1.7-.1,2.2-.2.4-.5.1-.6,1.6-2,1.9-3.2A19.8,19.8,0,0,0,315.6,177.9Z"/><path class="cls-2" d="M302.9,189.2c-1.7-.6-3.8.4-3.9,1s6.7,1.8,9,2.4,3.7.8,3.3.4Z"/><path class="cls-2" d="M317.1,144c.5-.8-.8-4.4-1.5-3.6s-.1,2.9,0,3.7S316.5,144.7,317.1,144Z"/><path class="cls-2" d="M321.1,151.8c.5-.9-.4-1.9-2-2.3s-1.2,4.2-.6,4.7S320.8,152.7,321.1,151.8Z"/><path class="cls-2" d="M329,179.7c1.8,1.3,5.9.7,6-1.7C333.2,176.8,328.9,177,329,179.7Z"/><path class="cls-2" d="M328,124.3a2.5,2.5,0,0,0-.9,2.3h-.3c-.6,0-.7,2.4,0,2.8s2.1-1.8,2.9-2.3a4.1,4.1,0,0,1,2.6-.7,8,8,0,0,0,3-.9,2.2,2.2,0,0,0,.9-1c-.3-1.7-.8-3.3-1.1-5.1l-2,1.4Z"/><path class="cls-2" d="M298.1,182.5a20.5,20.5,0,0,0-4.7-5.5l-.7-1.2-.8-1.3c-.6-1.5-2.9-2.6-3.1-3s-.9,1.2-1.7.7l2.4,1.7c2,1.5,6,11.6,7,12.3S298.8,184,298.1,182.5Z"/><path class="cls-2" d="M266,166.1c-.6,1.1,2.9,3.6,3.2,3a6.7,6.7,0,0,0-1-3.9C267.6,164.5,266.7,165,266,166.1Z"/><path class="cls-2" d="M219.1,220.2c.1,1.2,2.5,2.1,3.2,1.9s2.7-3.8,2.9-4.8a25,25,0,0,0,.6-3.8,4.1,4.1,0,0,1,.5-1.9,6.8,6.8,0,0,0,1-2.7c.3-1.3-1.4-7.7-1.4-8.8s-1.2.5-1.6,1.6-3.4,3.5-4.2,4.4-1.5,4.1-1.1,4.7a9.2,9.2,0,0,1-.6,3.3C217.9,214.8,218.8,219.1,219.1,220.2Z"/><path class="cls-2" d="M104.5,264.4h2.1C106.8,262.1,104.4,262.4,104.5,264.4Z"/><path class="cls-2" d="M161.5,23.7a7.6,7.6,0,0,1-3.6-.8,7.9,7.9,0,0,0-4.8-.3c-1,.4-.3-2.5,1-2.7s.2-2.2-1.2-2.2-5.1-.6-5.9-.4a18,18,0,0,1-3.2-.6c-.5-.2-5,1.3-7,1.2a46.2,46.2,0,0,0-8.3.4c-1.1.3-1.9,2.5-1.6,3.3s-5,.8-6.5.8-10.2,1.7-12.4,3-3.9,4.3-3.3,4.3-1.2,1.8-2.4,2.3-4.1.5-4.7,1.2.6,1.1.9,1.6,1-.4,1.8.1,3.2.5,3.9.9-2.2.7-3.4.9-1,2.5,0,3,3.8.6,4,.2,3.3.4,4.6.7,2.4,3.4,2.8,4.2.5,3.3.5,4,2.3,2.1,2.8,1.6.3,1.1-.7,1-.4,2.7.9,3.1.3,2.2-.4,2.7-.3,2.1-1,2.8,2.6,6.3,2.5,9.2,1.8,5.2,2.5,5.2,3,.6,3.3,1.3,1.5-.5,1.9-.9a25.3,25.3,0,0,0,2.1-3.2c.8-1.2,2.4-7,2.6-7.7s2.9-.2,3.6-.5a31.5,31.5,0,0,0,2.9-2.2c.4-.4,4.3-2,5.5-2.7s2.8-4.1,3.6-4.9-.4-.4-1.4-1.1A1.1,1.1,0,0,1,143,51c0-.1.1-.2.2-.3s3.4.5,4.4.9,3.2-1,2.4-1.5-.3-.6,0-.4.8-1.9.4-2.3,3.2-3,2.6-5.5.9-5,1.9-5,.7-2.8-.6-3,0-.5.5-.9a8,8,0,0,0,.7-3.4c-.3-.4,1.8-1,2.1-1.5a7.8,7.8,0,0,1,3.5-1.8C161.7,25.9,162.3,23.7,161.5,23.7Z"/><path class="cls-2" d="M181.6,25.9c-1.1-.3-3.3.9-3,1.6s-1.8-.9-3.2-.1-1.9,3.3-1.3,3.7,1.1,2.3,1.1,2.8,2.8.1,3.6-.5.6,2-.1,2.8.2,2.1,1,2.2,1.8,1.9,2.7,1.9,2.2-3.1,2.5-4.2,3-.2,4.2.1,1.7-4.2.3-5-3-.4-3.5-.9a3.9,3.9,0,0,0-2.2-1.1C183.3,29.1,182.7,26.3,181.6,25.9Z"/><path class="cls-2" d="M192.5,28.2a7.9,7.9,0,0,0,5.1-2c.6-.5-6-1.8-8.6-1.9s-4.5.2-4.5.7S190.3,27.8,192.5,28.2Z"/><path class="cls-2" d="M152.4,87.5c-.5-.2-.8,1.9-.7,2.7s2.1.8,3,.6a1.7,1.7,0,0,0,1.4-1.6c0-.7-1.2-3.9-1.6-3.9S153,87.7,152.4,87.5Z"/><path class="cls-2" d="M158.9,62.1c-.4-.7-3.8-.6-4.7-.6a14.3,14.3,0,0,1-3.9-1.5c-.5-.5-.8,2.1-1.5,2.5s.4.8.6.5,0,1.4-.4,1.9,2.2.9,2.6,1.8a2.2,2.2,0,0,0,2.3,1.3c1-.2,3-1.3,3.8-1.4S159.4,63,158.9,62.1Z"/><path class="cls-2" d="M231.2,42.5c1.2-1.1,6.1-2.8,6.6-4.1a1.5,1.5,0,0,0-.5-2.1h-.2a2,2,0,0,0-1.3.8c-.1.2-5.7,1.4-7.3,2.3a22,22,0,0,0-4.4,2.8c-.7.7-1.9,6.3-2.2,6.9s1.7,2.7,2.8,3.4a4.1,4.1,0,0,0,2.7.2c.5-.1-.4-3.9-1-5.2S230.1,43.7,231.2,42.5Z"/><path class="cls-2" d="M225.3,28.1c1.8,1.7,2.8-.8,4.8-.6C230.1,23.7,225.1,25.1,225.3,28.1Z"/><path class="cls-2" d="M261,28.8c0,.7,5,1.3,6.6.9s-.4-2.5-2.5-2.4S261,28.2,261,28.8Z"/><path class="cls-2" d="M75,66.8c-.6.5,0,3.1.9,3.1s2.7-3.8,3.9-3.1,2.1,1,1.9.7-3.8-1.9-4.2-2.2S75.6,66.4,75,66.8Z"/><path class="cls-2" d="M88.1,152.2c0,.5,2.2.4,2.5-.3s.2-1.2-.4-1.2A3.6,3.6,0,0,0,88.1,152.2Z"/><path class="cls-2" d="M78.1,148.5c1-.2.6,1.5.8,2.2s2.8,1.1,3.4,1.5,1.7-.8,2.8-.6-.4-3.6-2.1-3.5-3-1.6-3.4-1.8a17.5,17.5,0,0,1-2.9-1.8c-.6-.4-4.9-.8-6.4-.8a5,5,0,0,0-3.4,2c-.2.5,2.4.9,3.1.5s4.1.4,4.9,1.2A3.9,3.9,0,0,0,78.1,148.5Z"/><path class="cls-2" d="M73.4,152.2c0,.5,2.3.1,2.8.1s.6-.4,0-.7S73.4,151.8,73.4,152.2Z"/><path class="cls-2" d="M75,140.6c-.6-.2-1,.7-1,1.1a.8.8,0,0,0,.7.8C75.1,142.5,75.7,140.8,75,140.6Z"/><path class="cls-2" d="M79.8,140.9a2,2,0,0,0-1.5-.7c-.3,0-.4.6-.4,1.6S79.9,141.4,79.8,140.9Z"/><path class="cls-2" d="M83.2,146.2c.8-.5,1-1.5.4-1.5s-1.6-1.5-2.1-1.8-1,1.1-1,1.5a.7.7,0,0,0,.5.8h.1C81.6,145.1,82.3,146.6,83.2,146.2Z"/><path class="cls-2" d="M335.9,181.7c-.5.3-2.7.5-3.1.1s-.6.9-1.2,1.2-.2,1.3.6,1,2.7.9,4.3,2a45.1,45.1,0,0,0,.9-5.3Z"/><path class="cls-2" d="M76,201.7c-.2.5,2.6,3.3,3.6,4.3s3.3,5.6,3.8,7.1a11.9,11.9,0,0,1,0,4.6,6.9,6.9,0,0,0,.5,2.4c.1.5-.9,5-.5,6.9s-2.1,7.5-2,10.4,1.3,6.5,1.8,6.3.6,2.5-.2,2.9-1.9,2.5-1.3,2.6,0,2.4.1,3.3.9,6.8,1,8.3,2.3,5,2.7,6.2.9,3.5,1,3.8l.3.8a9.4,9.4,0,0,1,2.3,1c.4.3,3.8.1,4.9-.1s.1-1.2-.3-1.7-.9-3.1-1.5-3.3-.8-3.6-.3-4.4,2.4-1.9,2.7-2.6.2-3.4-.3-3.9.1-3.9-.2-5.7,3-3.3,3.2-4.7,4-2.9,4.7-3.6,1.6-4.6,1.2-5.4,1.3-1.6,2.1-1.6a7.6,7.6,0,0,0,2-.6c.2,0,1.2-1.7,1.7-2.1s1.5-4.6,2.4-5.2a7.2,7.2,0,0,0,1.7-3.9,9.6,9.6,0,0,1,1.9-3.6c.5-.7,3.9-2.3,4.6-2.5s1.6-5.8,1.8-7.8a52.9,52.9,0,0,1,1.3-5.4c0-.6,1.1-1.2,1.4-1.4s1-2.8,1.5-3.4,2.5-3,2.5-3.5a11.4,11.4,0,0,1,.7-3.2v-3.4c-.6-1.7-2.5-3.8-3-3.3s-2.5-1.4-3.6-1.9a23.4,23.4,0,0,0-4.5-.7c-.7,0-3-1.9-4.1-2.2a37.4,37.4,0,0,1-4.3-1.1c-.4-.3-1.1-4.4-3.3-5.7s-6.1-4.5-6.5-5.6-4.6-3.5-6-4.2-3.2-.9-3.4-.6-1.9-2.2-2.7-2.9-3.4-1.2-3.5-.7-1.8.2-2.1-.2-1.7.2-2.3.4-2.7,3.4-3.7,4.2-2.1-.7-2.8-1a6.1,6.1,0,0,0-3.7,1c-.7.4-2.1-3.4-1.8-5.2s-1.6-5.2-3.1-5.3-1.9-3.8-1.7-5.2-2.7-2.2-3.5-2.3-2.5,1.8-2.9,2.8-7.1-1.3-6.3-5.4,4-8.4,4.8-8.8,5.1-.7,6.1-.1a1.8,1.8,0,0,0,2-.3,15.4,15.4,0,0,1,4.8.5c1,.4,2.6,4.6,3.7,5s1.5-2.7,1.7-3.4a8.9,8.9,0,0,0-.8-3.3c-.2-.5,1.8-5.6,3.5-6.4s3.4-3.6,3.2-4.1,1.4-.9,1.7-1.1,0-4.3.6-5.1a17.5,17.5,0,0,1,4.8-3.2c1-.4,1.6-2.9,1.3-3.4s2.6-2.9,4.1-3.5,2.8.9,2.5,1l3.2-1.8c.9-.5,0-2.6-.6-3.1s-.3-2.7.5-2.9,1.5-2.1,1.3-2.5,3.3.4,4.6-.7.4,2.4-.5,3.8a1.6,1.6,0,0,0,.4,2.2,1.6,1.6,0,0,0,.9.3,1.6,1.6,0,0,1,1.5,1.1c.1.4,1.4-.4,2.3,0s1.5-1.2,1.5-2-2.1-2.2-2.5-3.2a59.5,59.5,0,0,1-.4-7.3c0-1-1.5-2.8-1.9-2.5s-1.4-2.7-2.1-3.4a3.4,3.4,0,0,1-.9-2.7c0-.4-2.5-3.1-3.2-4.4s-1.4-1-1.5-.4-1.8.7-2.6.6-1.3-3-1.3-4-3.3-1.2-3.8-2.1-2.7-.4-3.1-1a3.8,3.8,0,0,0-2.5-.9c-.4.2-.3,8-.6,10s-2.1,3.9-2.8,3.8-.2,1.4.1,1.3-1.2,2.2-1.4,3.8-1.8,0-2-1.4-1.8-3.4-2.2-3-1.3-.5-1.8-.2-3.3-1.7-4.5-2.3-1.8-4.3-2.6-4.6-.1-.8-.1-1.3,2.3-2.7,3-3.5a61,61,0,0,1,4.2-4.9c1.1-.8,1.8-2.6,1.6-2.9s4.4-1.8,5.6-2.2,2.2-3.8,2.5-4.8a4.4,4.4,0,0,0-1.4-3c-.5-.2,1.7-.3,2.5.1s3-.6,4-.2l4.1,2.5L91.3,61l-.5,4.3c-3.6,1.4-4.6,4-3.4,3.9s6.9,2.4,8.5,3.6,2.1-1.7,2.6-2.6a7.2,7.2,0,0,0,0-4.1c-.5-.6,1.8-.4,2.4.2s1.4-.6,1.8-.9.7-2.6,1-3-1-.9-1.1-1.6-2.6-1.7-3.4-2.1a2.1,2.1,0,0,1-.5-2.5c.3-.3-.2-2.6-.7-3.2s-3-1.4-3.9-1.4-1.8-2-2.3-2.3a19.6,19.6,0,0,0-4.8-.5c-.8.3-2.4-2.4-3.8-1.5s-3-.9-3.6-1.4-4,3.3-3.9,5.7,1.2,5,1.8,5.1-.2,2.3-.7,3-2-.7-1.5-1.2-1.4-3.3-2.1-4.3-2.2-1.4-3.3-1.9l-2.1,2.2a5.5,5.5,0,0,1,.3,3.1c-.5,1.5-1.8,1.7-1.8,1.1a2,2,0,0,0-1.5-.6l-2,2.6-2,2.6-2,2.8L57,68.5l-2.6,3.8L52.1,76c-.7,1-1.2,2.1-1.9,3.2A10.1,10.1,0,0,0,49,81.5l-1.9,3.4L46,87c-1.3,2.6-2.6,5.4-3.9,8.3v.3l-1.6,4.2-.7,1.6-1.6,4.3-.2.7c-1.7,5-3.2,10-4.4,15.1-.1.3-.1.7-.2,1-1.2,5.4-2.1,10.9-2.8,16.4h0a6.8,6.8,0,0,1,1.8,2.6c.5,1.3,2.8,2.2,3.3,2.6s.5-2.6.2-3.4.5-1.1.5-.7,2.3,3.1,2.9,4.1,1.5,6.8,2.3,8,7.5,3.9,9.7,4.4a13,13,0,0,1,5.4,3.5c.4.7,3.3,1.1,3.9,1.4a34.4,34.4,0,0,1,2.7,2.7,4,4,0,0,1,1.1,1.9c0,.3,3.8,1.8,4.8,2.8a2.4,2.4,0,0,0,2.8.3c.2-.4,1,2,1.4,2.9s.5,2.9.1,3.2-.7,4.2-1.4,5-2,6.3-1.7,7.5a8.5,8.5,0,0,0,2.9,3.6,1,1,0,0,1,.3,1.3l-.4.3c-.6,0-.3,5.5,1.1,6.3S76.2,201.4,76,201.7Z"/><path class="cls-2" d="M83.6,41.5c1.8-.4,4.9-.9,5.1-1.4a3.8,3.8,0,0,0-.1-2.1h.9c.7,0,1.9-3.8,2.6-4.7S97,31.1,98,30.5s3.3-2.7,4-3,2.2-2.2,1.9-2.6,2.9-2.2,4.1-2.7,1.8-1.7,1.3-1.9-6.7,3.4-12.6,6.7h-.1l-5.1,3.6-3.2,2.6-1.7,1.3-3.8,3.3-.8.6-4.1,3.7Z"/><path class="cls-2" d="M182.1,117.4c-.7,0-.8,2.1,0,2.4s1.2-1.2,1.9-2.1v-8.6h-.1c-.9-.9-.8-.9.1-.2V55.5l-2,1.8c-1.3,1-3.5,5.3-4.2,6.4a2.4,2.4,0,0,1-2.1,1.2,2.1,2.1,0,0,0-.8,1.6c0,.4-3.7,2.3-4.1,4s.4,5.6.4,7,1.4,4.1,2.4,4.1.5,2.3.2,3,.7,1.3.6,1.9-2.6,1.3-3.4,1.6a5.2,5.2,0,0,0-2.2,2.8c-.1.5-2.6,1-3.5,1.8s.6-1.4.7-1.8a2.9,2.9,0,0,0-.6-2.8c-.3-.4-.5-4.8-1.2-5.8a24.3,24.3,0,0,0-2.6-2.9c-.4-.4.2-1.5.6-2.1s-2.2-.7-2.7-.4-1,4.8-1.2,6a3.7,3.7,0,0,0,1.5,3.2c.5.1.2,2.2-.5,2.3s-1.6,3.2-1.2,4-.5,2.2-1,2.5,3.2.1,4.8.1a4,4,0,0,1,2.8.8c-.1.1-3.1.5-3.6,1.2s-2.6,2-3,2.6.7,1.7,1.5,1.7,1.8,2.9,2.5,3.4a2.7,2.7,0,0,1,.1,2.6c-.3.4-4.4-.2-5.8.1s-3.5,3.6-3.6,4.8a36.4,36.4,0,0,0,.4,5.7c.1.9,3.4,1.6,4.1,2s3.6,0,4.3.4,2.7-3.2,3.1-4.7,3.7-4.5,4.4-5.6,4.1-.9,5-1.5.5,2.7.8,4.5,3.8,1.6,3.3-.1.3-2.4.4-1.8,3.4,1.9,4,2.8S182.7,117.4,182.1,117.4Z"/><path class="cls-2" d="M184,128l-1.7-.8c-2-.8-3.6-3.8-3.9-4.3s.3-1.3.1-2-4.7-.6-6-.2-8.2,1.2-9.8,1.9-4,0-4.8-.1-2.5,2.1-3.4,2.5-2.1,3.5-2.6,7l-1.2,2.3-.8,1.6c-2.3,1.7-4.7,7.4-5.5,8.6s-1.3,9.4-1.3,12.2,2.3,8.6,3.1,10.3,4.8,5.1,6.2,6,6,1,7.4,1a4.3,4.3,0,0,0,3.7-3.1l2.1.2h1c0,1.2,3.3,2.1,4.1,2.6a6.5,6.5,0,0,0,3.4-.1c.6-.1,1.4,5.4.9,7.1s1.1,7.4,1.6,9.2,2.5,6.5,2.6,8.1-1.2,7.4-1.4,9.4,2.5,7.5,3.2,9.4a41,41,0,0,1,1.2,7,32.5,32.5,0,0,0,1.5,4V127.7h0Z"/><path class="cls-2" d="M104.5,264.4h2.1C106.8,262.1,104.4,262.4,104.5,264.4Z"/><path class="cls-2" d="M147.4,51.7c1.1.5,3.1-1,2.4-1.5s-.4-.6,0-.4.7-1.9.4-2.3,3.1-3,2.6-5.5,1-5,1.9-5,.7-2.8-.6-3,0-.5.5-.9a6.6,6.6,0,0,0,.6-3.4c-.2-.4,1.8-1,2.2-1.5a8,8,0,0,1,3.4-1.8c.9-.1,1.3-2.4.5-2.3a7.3,7.3,0,0,1-3.6-.7c-.4-.5-3.8-.8-4.8-.5s-.3-2.4,1-2.7.2-2.2-1.2-2.2-5.2-.6-6-.3a17.3,17.3,0,0,1-3.1-.7c-.5-.1-5,1.3-7,1.2a45.7,45.7,0,0,0-8.3.5c-1.1.2-1.9,2.4-1.7,3.2s-4.9.8-6.5.8-10.1,1.8-12.4,3-3.9,4.4-3.2,4.4-1.2,1.8-2.5,2.2-4,.6-4.7,1.2.7,1.1.9,1.6,1-.5,1.8,0,3.3.6,3.9.9-2.1.8-3.3.9-1,2.6,0,3,3.8.7,4,.2,3.3.5,4.6.7,2.3,3.5,2.8,4.2a14.3,14.3,0,0,1,.4,4.1c0,.7,2.4,2,2.8,1.5s.4,1.1-.6,1-.4,2.7.9,3.2.3,2.1-.4,2.6-.3,2.2-1,2.8,2.6,6.3,2.5,9.2,1.8,5.3,2.4,5.3,3,.5,3.4,1.2,1.4-.5,1.9-.9l2.1-3.1c.8-1.3,2.4-7.1,2.6-7.7s2.9-.3,3.6-.6l2.9-2.1c.4-.5,4.3-2,5.4-2.8s2.8-4,3.7-4.8-.4-.5-1.4-1.1a1.2,1.2,0,0,1-.5-1.6l.2-.2C143.2,50.5,146.4,51.3,147.4,51.7Z"/><path class="cls-2" d="M181.6,25.9c-1.1-.3-3.3.9-3,1.6s-1.8-.9-3.2-.1-1.9,3.3-1.3,3.7,1.1,2.3,1.1,2.8,2.8.1,3.6-.5.6,2-.1,2.8.2,2.1,1,2.2,1.8,1.9,2.7,1.9a2.9,2.9,0,0,0,1.5-1.6V29.1h0C183.3,29.1,182.7,26.3,181.6,25.9Z"/><path class="cls-2" d="M154.8,90.8a1.7,1.7,0,0,0,1.4-1.6c0-.7-1.2-3.9-1.6-3.9s-1.4,2.3-2,2.1-.9,1.9-.8,2.7S153.8,91,154.8,90.8Z"/><path class="cls-2" d="M151.7,66.7A2.2,2.2,0,0,0,154,68c1-.2,3-1.3,3.8-1.4s1.5-3.7,1-4.5-3.8-.6-4.7-.6a13.2,13.2,0,0,1-3.9-1.5c-.5-.5-.8,2.1-1.6,2.5s.4.8.7.5,0,1.4-.4,1.9S151.4,66.1,151.7,66.7Z"/><path class="cls-2" d="M75,66.8c-.6.5,0,3.1.9,3.1s2.7-3.8,3.9-3.1,2.1,1,1.9.7-3.8-1.9-4.2-2.2S75.6,66.4,75,66.8Z"/><path class="cls-2" d="M88.1,152.2c0,.5,2.2.4,2.5-.3s.2-1.2-.4-1.2A3.6,3.6,0,0,0,88.1,152.2Z"/><path class="cls-2" d="M78.1,148.5c1-.2.6,1.5.8,2.2s2.8,1.1,3.4,1.5,1.7-.8,2.8-.6-.4-3.6-2.1-3.5-3-1.6-3.4-1.8a17.5,17.5,0,0,1-2.9-1.8c-.6-.4-4.9-.8-6.4-.8a5,5,0,0,0-3.4,2c-.2.5,2.4.9,3.1.5s4.1.4,4.9,1.2A3.9,3.9,0,0,0,78.1,148.5Z"/><path class="cls-2" d="M73.4,152.2c0,.5,2.3.1,2.8.1s.6-.4,0-.7S73.4,151.8,73.4,152.2Z"/><path class="cls-2" d="M75,140.6c-.6-.2-1,.7-1,1.1a.8.8,0,0,0,.7.8C75.1,142.5,75.7,140.8,75,140.6Z"/><path class="cls-2" d="M79.8,140.9a2,2,0,0,0-1.5-.7c-.3,0-.4.6-.4,1.6S79.9,141.4,79.8,140.9Z"/><path class="cls-2" d="M83.2,146.2c.8-.5,1-1.5.4-1.5s-1.6-1.5-2.1-1.8-1,1.1-1,1.5a.7.7,0,0,0,.5.8h.1C81.6,145.1,82.3,146.6,83.2,146.2Z"/><path class="cls-3" d="M88.7,38.3c-.1-.1-.7.4-.4.6A.4.4,0,0,0,88.7,38.3Z"/><path class="cls-3" d="M106,89.6c-.2-.1-.8.4-.6.6S106.3,90,106,89.6Z"/><path class="cls-4" d="M105.3,45.2H18.9A18.9,18.9,0,0,0,0,64V271.1A18.9,18.9,0,0,0,18.9,290h86.4a18.9,18.9,0,0,0,18.9-18.9V64.2a18.8,18.8,0,0,0-18.6-19Z"/><path class="cls-5" d="M45.7,59.9H78.3A1.7,1.7,0,0,1,80,61.6a1.6,1.6,0,0,1-1.4,1.7H45.7a1.7,1.7,0,0,1,0-3.4Z"/><path class="cls-5" d="M62,276.2a11,11,0,1,1,11-11A11.2,11.2,0,0,1,62,276.2Z"/><rect class="cls-5" x="8" y="82.5" width="107.9" height="159.7"/><path class="cls-6" d="M62,257.6a7.8,7.8,0,0,0-7.6,7.6,7.6,7.6,0,1,0,7.6-7.6Z"/><rect class="cls-7" x="14.3" y="119.4" width="95.4" height="49.08"/><rect class="cls-8" x="40.5" y="98.2" width="69" height="6.82"/><path class="cls-8" d="M32.2,101.7a9,9,0,1,1-9-8.9A8.9,8.9,0,0,1,32.2,101.7Z"/><rect class="cls-8" x="14.3" y="200" width="95.4" height="2.81"/><rect class="cls-8" x="14.3" y="209.7" width="95.4" height="2.81"/><rect class="cls-8" x="14.3" y="219.3" width="95.4" height="2.81"/><rect class="cls-8" x="14.3" y="228.9" width="69.3" height="2.81"/><rect class="cls-8" x="14.3" y="181.3" width="63.5" height="6.82"/><path class="cls-5" d="M40.8,148V135.6H43l1.9,4.9,1.4,3.6h0c-.1-1.4-.3-3.5-.3-5.7v-2.8h2.2V148H45.9L44,143.3c-.4-1.2-.9-2.5-1.2-3.7h0c0,1.2.1,3.1.1,5.7v2.8H40.8Z"/><path class="cls-5" d="M55.5,142.5H52.8v3.4H56V148H50.4V135.6h5.4v2.1h-3v2.9h2.7v2Z"/><path class="cls-5" d="M58.9,137.8H56.7v-2.2h6.8v2.2H61.2V148H58.8V137.8Z"/><path class="cls-5" d="M66.5,148l-2.1-12.4h2.4l.6,4.9c.1,1.4.2,2.8.4,4.3h0c.2-1.5.5-2.9.7-4.3l.9-4.9h1.9l.8,4.9c.2,1.4.4,2.8.5,4.3h0l.5-4.3.6-4.9H76L73.8,148H71.6l-.7-4a40.1,40.1,0,0,1-.6-4.1h0c-.2,1.5-.4,2.9-.7,4.2l-.8,4H66.5Z"/><path class="cls-5" d="M85.1,141.6c0,4.7-1.7,6.6-4.1,6.6s-3.9-3-3.9-6.4,1.4-6.3,4.2-6.3S85.1,138.7,85.1,141.6Zm-5.5.2c0,2.8.5,4.3,1.5,4.3s1.5-1.8,1.5-4.4-.3-4.1-1.5-4.1S79.6,139.1,79.6,141.8Z"/><path class="cls-5" d="M86.5,135.8l2.7-.2a4.3,4.3,0,0,1,3.3.9,2.7,2.7,0,0,1,1,2.5,3.3,3.3,0,0,1-1.9,3.2h0c.9.3,1.3,1.1,1.6,2.4A18.7,18.7,0,0,0,94,148H91.4a15.7,15.7,0,0,1-.5-3c-.3-1.6-.6-2.1-1.5-2.1h-.3v5H86.6V135.7Zm2.5,5.4h.4a1.8,1.8,0,0,0,1.7-1.7v-.2a1.6,1.6,0,0,0-1.3-1.8H89Z"/><path class="cls-5" d="M95.2,135.6h2.5v5.6h0l.5-1.6,1.7-4h2.7l-2.8,5.3,2.8,7.1H99.9l-1.8-5.2-.5,1V148H95.1V135.6Z"/><g id="Page-1"><g id="xamagon"><path id="Logo" class="cls-5" d="M24.1,133.8a1.5,1.5,0,0,0-1.4.5l-4.5,7.6a1.5,1.5,0,0,0,0,1.6l4.5,7.6a1.6,1.6,0,0,0,1.4.7h9a1.5,1.5,0,0,0,1.4-.7l4.5-7.6a1.5,1.5,0,0,0,0-1.6l-4.5-7.3a1.3,1.3,0,0,0-1.4-.6h-9Zm.2,3.7v-.4h1.5c.1.2.2.3.2.5l2.6,4.8h0l2.6-4.9a.5.5,0,0,1,.2-.4H33a1.4,1.4,0,0,1,.2.6l-2.6,4.7,2.6,3.9c.1.1,0-.3-.2-.3H31.4c-.1,0-.1.6-.2.5l-2.6-4.2h0l-2.6,4c0,.1-.1-.6-.2-.6H24.3c-.2,0-.3.5-.3.4l2.6-4.3L24,137.4c0-.1,0-.3.1-.3h0Z"/></g></g></g></g></g></svg>