<svg xmlns="http://www.w3.org/2000/svg" xmlns:xlink="http://www.w3.org/1999/xlink" viewBox="0 0 345.2 471"><defs><style>.cls-1{fill:url(#Degradado_sin_nombre_3);}.cls-192,.cls-2{opacity:0.8;}.cls-203,.cls-3{fill:#fff;}.cls-4{fill:#fefefe;opacity:1;}.cls-10,.cls-100,.cls-101,.cls-102,.cls-103,.cls-104,.cls-105,.cls-106,.cls-107,.cls-108,.cls-109,.cls-11,.cls-110,.cls-111,.cls-112,.cls-113,.cls-114,.cls-115,.cls-116,.cls-117,.cls-118,.cls-119,.cls-12,.cls-120,.cls-121,.cls-122,.cls-123,.cls-124,.cls-125,.cls-126,.cls-127,.cls-128,.cls-129,.cls-13,.cls-130,.cls-131,.cls-132,.cls-133,.cls-134,.cls-135,.cls-136,.cls-137,.cls-138,.cls-139,.cls-14,.cls-140,.cls-141,.cls-142,.cls-143,.cls-144,.cls-145,.cls-146,.cls-147,.cls-148,.cls-149,.cls-15,.cls-150,.cls-151,.cls-152,.cls-153,.cls-154,.cls-155,.cls-156,.cls-157,.cls-158,.cls-159,.cls-16,.cls-160,.cls-161,.cls-162,.cls-163,.cls-164,.cls-165,.cls-166,.cls-167,.cls-168,.cls-169,.cls-17,.cls-170,.cls-171,.cls-172,.cls-173,.cls-174,.cls-175,.cls-176,.cls-177,.cls-178,.cls-179,.cls-18,.cls-180,.cls-181,.cls-182,.cls-183,.cls-184,.cls-185,.cls-186,.cls-187,.cls-188,.cls-189,.cls-19,.cls-190,.cls-191,.cls-192,.cls-195,.cls-197,.cls-199,.cls-20,.cls-201,.cls-203,.cls-207,.cls-21,.cls-22,.cls-23,.cls-24,.cls-25,.cls-26,.cls-27,.cls-28,.cls-29,.cls-30,.cls-31,.cls-32,.cls-33,.cls-34,.cls-35,.cls-36,.cls-37,.cls-38,.cls-39,.cls-4,.cls-40,.cls-41,.cls-42,.cls-43,.cls-44,.cls-45,.cls-46,.cls-47,.cls-48,.cls-49,.cls-5,.cls-50,.cls-51,.cls-52,.cls-53,.cls-54,.cls-55,.cls-56,.cls-57,.cls-58,.cls-59,.cls-6,.cls-60,.cls-61,.cls-62,.cls-63,.cls-64,.cls-65,.cls-66,.cls-67,.cls-68,.cls-69,.cls-7,.cls-70,.cls-71,.cls-72,.cls-73,.cls-74,.cls-75,.cls-76,.cls-77,.cls-78,.cls-79,.cls-8,.cls-80,.cls-81,.cls-82,.cls-83,.cls-84,.cls-85,.cls-86,.cls-87,.cls-88,.cls-89,.cls-9,.cls-90,.cls-91,.cls-92,.cls-93,.cls-94,.cls-95,.cls-96,.cls-97,.cls-98,.cls-99{isolation:isolate;}.cls-5{fill:#fdfdfd;opacity:1;}.cls-6{fill:#fcfcfc;opacity:1;}.cls-7{fill:#fbfbfb;opacity:1;}.cls-8{fill:#fafafa;opacity:0.99;}.cls-9{fill:#f9f9f9;opacity:0.99;}.cls-10{fill:#f8f8f8;opacity:0.99;}.cls-11{fill:#f7f7f7;opacity:0.99;}.cls-12{fill:#f6f6f6;opacity:0.99;}.cls-13{fill:#f5f5f5;opacity:0.99;}.cls-14{fill:#f4f4f4;opacity:0.99;}.cls-15{fill:#f3f3f3;opacity:0.99;}.cls-16{fill:#f2f2f2;opacity:0.99;}.cls-17{fill:#f1f1f1;opacity:0.99;}.cls-18{fill:#f0f0f0;opacity:0.98;}.cls-19{fill:#efefef;opacity:0.98;}.cls-20{fill:#eee;opacity:0.98;}.cls-21{fill:#ededed;opacity:0.98;}.cls-22{fill:#ececec;opacity:0.98;}.cls-23{fill:#ebebeb;opacity:0.98;}.cls-24{fill:#eaeaea;opacity:0.98;}.cls-25{fill:#e9e9e9;opacity:0.98;}.cls-26{fill:#e8e8e8;opacity:0.98;}.cls-27{fill:#e7e7e7;opacity:0.97;}.cls-28{fill:#e6e6e6;opacity:0.97;}.cls-29{fill:#e5e5e5;opacity:0.97;}.cls-30{fill:#e4e4e4;opacity:0.97;}.cls-31{fill:#e3e3e3;opacity:0.97;}.cls-32{fill:#e2e2e2;opacity:0.97;}.cls-33{fill:#e1e1e1;opacity:0.97;}.cls-34{fill:#e0e0e0;opacity:0.97;}.cls-35{fill:#dfdfdf;opacity:0.97;}.cls-36{fill:#dedede;opacity:0.97;}.cls-37{fill:#ddd;opacity:0.96;}.cls-38{fill:#dcdcdc;opacity:0.96;}.cls-39{fill:#dbdbdb;opacity:0.96;}.cls-40{fill:#dadada;opacity:0.96;}.cls-41{fill:#d9d9d9;opacity:0.96;}.cls-42{fill:#d8d8d8;opacity:0.96;}.cls-43{fill:#d7d7d7;opacity:0.96;}.cls-44{fill:#d6d6d6;opacity:0.96;}.cls-45{fill:#d5d5d5;opacity:0.96;}.cls-46{fill:#d4d4d4;opacity:0.95;}.cls-47{fill:#d3d3d3;opacity:0.95;}.cls-48{fill:#d2d2d2;opacity:0.95;}.cls-49{fill:#d1d1d1;opacity:0.95;}.cls-50{fill:#d0d0d0;opacity:0.95;}.cls-51{fill:#cfcfcf;opacity:0.95;}.cls-52{fill:#cecece;opacity:0.95;}.cls-53{fill:#cdcdcd;opacity:0.95;}.cls-54{fill:#ccc;opacity:0.95;}.cls-55{fill:#cbcbcb;opacity:0.94;}.cls-56{fill:#cacaca;opacity:0.94;}.cls-57{fill:#c9c9c9;opacity:0.94;}.cls-58{fill:#c8c8c8;opacity:0.94;}.cls-59{fill:#c7c7c7;opacity:0.94;}.cls-60{fill:#c6c6c6;opacity:0.94;}.cls-61{fill:#c5c5c5;opacity:0.94;}.cls-206,.cls-62{fill:#c4c4c4;}.cls-62{opacity:0.94;}.cls-63{fill:#c3c3c3;opacity:0.94;}.cls-64{fill:#c2c2c2;opacity:0.94;}.cls-65{fill:#c1c1c1;opacity:0.93;}.cls-66{fill:silver;opacity:0.93;}.cls-67{fill:#bfbfbf;opacity:0.93;}.cls-68{fill:#bebebe;opacity:0.93;}.cls-69{fill:#bdbdbd;opacity:0.93;}.cls-70{fill:#bcbcbc;opacity:0.93;}.cls-71{fill:#bbb;opacity:0.93;}.cls-72{fill:#bababa;opacity:0.93;}.cls-73{fill:#b9b9b9;opacity:0.93;}.cls-74{fill:#b8b8b8;opacity:0.92;}.cls-75{fill:#b7b7b7;opacity:0.92;}.cls-76{fill:#b6b6b6;opacity:0.92;}.cls-77{fill:#b5b5b5;opacity:0.92;}.cls-78{fill:#b4b4b4;opacity:0.92;}.cls-79{fill:#b3b3b3;opacity:0.92;}.cls-80{fill:#b2b2b2;opacity:0.92;}.cls-81{fill:#b1b1b1;opacity:0.92;}.cls-82{fill:#b0b0b0;opacity:0.92;}.cls-83{fill:#afafaf;opacity:0.92;}.cls-84{fill:#aeaeae;opacity:0.91;}.cls-85{fill:#adadad;opacity:0.91;}.cls-86{fill:#acacac;opacity:0.91;}.cls-87{fill:#ababab;opacity:0.91;}.cls-88{fill:#aaa;opacity:0.91;}.cls-89{fill:#a9a9a9;opacity:0.91;}.cls-90{fill:#a8a8a8;opacity:0.91;}.cls-91{fill:#a7a7a7;opacity:0.91;}.cls-92{fill:#a6a6a6;opacity:0.91;}.cls-93{fill:#a5a5a5;opacity:0.9;}.cls-94{fill:#a4a4a4;opacity:0.9;}.cls-95{fill:#a3a3a3;opacity:0.9;}.cls-96{fill:#a2a2a2;opacity:0.9;}.cls-97{fill:#a1a1a1;opacity:0.9;}.cls-98{fill:#a0a0a0;opacity:0.9;}.cls-99{fill:#9f9f9f;opacity:0.9;}.cls-100{fill:#9e9e9e;opacity:0.9;}.cls-101{fill:#9d9d9d;opacity:0.9;}.cls-102{fill:#9c9c9c;opacity:0.9;}.cls-103{fill:#9b9b9b;opacity:0.89;}.cls-104{fill:#9a9a9a;opacity:0.89;}.cls-105{fill:#999;opacity:0.89;}.cls-106{fill:#989898;opacity:0.89;}.cls-107{fill:#979797;opacity:0.89;}.cls-108{fill:#969696;opacity:0.89;}.cls-109{fill:#959595;opacity:0.89;}.cls-110{fill:#949494;opacity:0.89;}.cls-111{fill:#939393;opacity:0.89;}.cls-112{fill:#929292;opacity:0.88;}.cls-113{fill:#919191;opacity:0.88;}.cls-114{fill:#909090;opacity:0.88;}.cls-115{fill:#8f8f8f;opacity:0.88;}.cls-116{fill:#8e8e8e;opacity:0.88;}.cls-117{fill:#8d8d8d;opacity:0.88;}.cls-118{fill:#8c8c8c;opacity:0.88;}.cls-119{fill:#8b8b8b;opacity:0.88;}.cls-120{fill:#8a8a8a;opacity:0.88;}.cls-121{fill:#898989;opacity:0.88;}.cls-122{fill:#888;opacity:0.87;}.cls-123{fill:#878787;opacity:0.87;}.cls-124{fill:#868686;opacity:0.87;}.cls-125{fill:#858585;opacity:0.87;}.cls-126{fill:#848484;opacity:0.87;}.cls-127{fill:#838383;opacity:0.87;}.cls-128{fill:#828282;opacity:0.87;}.cls-129{fill:#818181;opacity:0.87;}.cls-130{fill:gray;opacity:0.87;}.cls-131{fill:#7f7f7f;opacity:0.86;}.cls-132{fill:#7e7e7e;opacity:0.86;}.cls-133{fill:#7d7d7d;opacity:0.86;}.cls-134{fill:#7c7c7c;opacity:0.86;}.cls-135{fill:#7b7b7b;opacity:0.86;}.cls-136{fill:#7a7a7a;opacity:0.86;}.cls-137{fill:#797979;opacity:0.86;}.cls-138{fill:#787878;opacity:0.86;}.cls-139{fill:#777;opacity:0.86;}.cls-140{fill:#767676;opacity:0.86;}.cls-141{fill:#757575;opacity:0.85;}.cls-142{fill:#747474;opacity:0.85;}.cls-143{fill:#737373;opacity:0.85;}.cls-144{fill:#727272;opacity:0.85;}.cls-145{fill:#717171;opacity:0.85;}.cls-146,.cls-211{fill:#707070;}.cls-146{opacity:0.85;}.cls-147{fill:#6f6f6f;opacity:0.85;}.cls-148{fill:#6e6e6e;opacity:0.85;}.cls-149{fill:#6d6d6d;opacity:0.85;}.cls-150{fill:#6c6c6c;opacity:0.84;}.cls-151{fill:#6b6b6b;opacity:0.84;}.cls-152{fill:#6a6a6a;opacity:0.84;}.cls-153{fill:#696969;opacity:0.84;}.cls-154{fill:#686868;opacity:0.84;}.cls-155{fill:#676767;opacity:0.84;}.cls-156{fill:#666;opacity:0.84;}.cls-157{fill:#656565;opacity:0.84;}.cls-158{fill:#646464;opacity:0.84;}.cls-159{fill:#636363;opacity:0.83;}.cls-160{fill:#626262;opacity:0.83;}.cls-161{fill:#616161;opacity:0.83;}.cls-162{fill:#606060;opacity:0.83;}.cls-163{fill:#5f5f5f;opacity:0.83;}.cls-164{fill:#5e5e5e;opacity:0.83;}.cls-165{fill:#5d5d5d;opacity:0.83;}.cls-166{fill:#5c5c5c;opacity:0.83;}.cls-167{fill:#5b5b5b;opacity:0.83;}.cls-168{fill:#5a5a5a;opacity:0.83;}.cls-169{fill:#595959;opacity:0.82;}.cls-170{fill:#585858;opacity:0.82;}.cls-171{fill:#575757;opacity:0.82;}.cls-172{fill:#565656;opacity:0.82;}.cls-173{fill:#555;opacity:0.82;}.cls-174{fill:#545454;opacity:0.82;}.cls-175{fill:#535353;opacity:0.82;}.cls-176{fill:#525252;opacity:0.82;}.cls-177{fill:#515151;opacity:0.82;}.cls-178{fill:#505050;opacity:0.81;}.cls-179{fill:#4f4f4f;opacity:0.81;}.cls-180{fill:#4e4e4e;opacity:0.81;}.cls-181{fill:#4d4d4d;opacity:0.81;}.cls-182{fill:#4c4c4c;opacity:0.81;}.cls-183{fill:#4b4b4b;opacity:0.81;}.cls-184{fill:#4a4a4a;opacity:0.81;}.cls-185{fill:#494949;opacity:0.81;}.cls-186{fill:#484848;opacity:0.81;}.cls-187{fill:#474747;opacity:0.81;}.cls-188{fill:#464646;opacity:0.8;}.cls-189{fill:#454545;opacity:0.8;}.cls-190{fill:#444;opacity:0.8;}.cls-191{fill:#434343;opacity:0.8;}.cls-192,.cls-193{fill:#424242;}.cls-194{fill:url(#Degradado_sin_nombre_3-2);}.cls-195{opacity:0.12;}.cls-196{fill:#5f2900;}.cls-197,.cls-203{opacity:0.2;}.cls-198{fill:#e88e47;}.cls-199{opacity:0.35;}.cls-200{fill:url(#Degradado_sin_nombre_3-3);}.cls-201{opacity:0.1;}.cls-202{fill:#361700;}.cls-204{fill:#450800;}.cls-205{fill:#b20a00;}.cls-207{opacity:0.36;}.cls-208{fill:#873a00;}.cls-209{fill:#ffa81f;}.cls-210{fill:#f69e63;}.cls-212{fill:#9ad5f0;}.cls-213{fill:url(#Degradado_sin_nombre_4);}</style><linearGradient id="Degradado_sin_nombre_3" x1="93.27" y1="937.75" x2="136.75" y2="937.75" gradientTransform="translate(0 -740)" gradientUnits="userSpaceOnUse"><stop offset="0.08" stop-color="#bdbdbd"/><stop offset="0.13" stop-color="#c2c2c2"/><stop offset="0.37" stop-color="#d7d7d7"/><stop offset="0.53" stop-color="#dfdfdf"/><stop offset="1" stop-color="#cdcdcd"/></linearGradient><linearGradient id="Degradado_sin_nombre_3-2" x1="122.87" y1="969.89" x2="254.68" y2="969.89" xlink:href="#Degradado_sin_nombre_3"/><linearGradient id="Degradado_sin_nombre_3-3" x1="571.66" y1="1050.11" x2="639.18" y2="1050.11" gradientTransform="matrix(-0.98, -0.17, -0.17, 0.98, 1056.13, -685.13)" xlink:href="#Degradado_sin_nombre_3"/><linearGradient id="Degradado_sin_nombre_4" x1="56.59" y1="833.11" x2="79.04" y2="877.54" gradientTransform="matrix(1, -0.04, 0.04, 1, -47.85, -721.39)" gradientUnits="userSpaceOnUse"><stop offset="0" stop-color="#fff"/><stop offset="1"/></linearGradient></defs><title>mundonosotros</title><g id="Capa_2" data-name="Capa 2"><g id="Página_interna_escritorio" data-name="Página interna escritorio"><polygon class="cls-1" points="130.4 170.6 93.3 202.6 105.7 224.9 136.8 183.5 130.4 170.6"/><g class="cls-2"><ellipse class="cls-3" cx="209.7" cy="458.1" rx="135.5" ry="12.9"/><ellipse class="cls-4" cx="209.7" cy="458.1" rx="135.1" ry="12.9"/><ellipse class="cls-5" cx="209.7" cy="458.1" rx="134.8" ry="12.9"/><ellipse class="cls-6" cx="209.7" cy="458.1" rx="134.5" ry="12.7"/><ellipse class="cls-7" cx="209.7" cy="458.1" rx="134.3" ry="12.7"/><ellipse class="cls-8" cx="209.7" cy="458.1" rx="134" ry="12.7"/><ellipse class="cls-9" cx="209.7" cy="458.1" rx="133.7" ry="12.7"/><ellipse class="cls-10" cx="209.7" cy="458.1" rx="133.4" ry="12.7"/><ellipse class="cls-11" cx="209.7" cy="458.1" rx="133" ry="12.6"/><ellipse class="cls-12" cx="209.7" cy="458.1" rx="132.7" ry="12.6"/><ellipse class="cls-13" cx="209.7" cy="458.1" rx="132.4" ry="12.6"/><ellipse class="cls-14" cx="209.7" cy="458.1" rx="132.1" ry="12.6"/><ellipse class="cls-15" cx="209.7" cy="458.1" rx="131.7" ry="12.6"/><ellipse class="cls-16" cx="209.7" cy="458.1" rx="131.4" ry="12.6"/><ellipse class="cls-17" cx="209.7" cy="458.1" rx="131.1" ry="12.4"/><ellipse class="cls-18" cx="209.7" cy="458.1" rx="130.9" ry="12.4"/><ellipse class="cls-19" cx="209.7" cy="458.1" rx="130.6" ry="12.4"/><ellipse class="cls-20" cx="209.7" cy="458.1" rx="130.3" ry="12.4"/><ellipse class="cls-21" cx="209.7" cy="458.1" rx="130" ry="12.4"/><ellipse class="cls-22" cx="209.7" cy="458.1" rx="129.7" ry="12.3"/><ellipse class="cls-23" cx="209.7" cy="458.1" rx="129.3" ry="12.3"/><ellipse class="cls-24" cx="209.7" cy="458.1" rx="129" ry="12.3"/><ellipse class="cls-25" cx="209.7" cy="458.1" rx="128.7" ry="12.3"/><ellipse class="cls-26" cx="209.7" cy="458.1" rx="128.4" ry="12.3"/><ellipse class="cls-27" cx="209.7" cy="458.1" rx="128" ry="12.1"/><ellipse class="cls-28" cx="209.7" cy="458.1" rx="127.7" ry="12.1"/><ellipse class="cls-29" cx="209.7" cy="458.1" rx="127.6" ry="12.1"/><ellipse class="cls-30" cx="209.7" cy="458.1" rx="127.2" ry="12.1"/><ellipse class="cls-31" cx="209.7" cy="458.1" rx="126.9" ry="12"/><ellipse class="cls-32" cx="209.7" cy="458.1" rx="126.6" ry="12"/><ellipse class="cls-33" cx="209.7" cy="458.1" rx="126.3" ry="12"/><ellipse class="cls-34" cx="209.7" cy="458.1" rx="125.9" ry="12"/><ellipse class="cls-35" cx="209.7" cy="458.1" rx="125.6" ry="12"/><ellipse class="cls-36" cx="209.7" cy="458.1" rx="125.3" ry="11.8"/><ellipse class="cls-37" cx="209.7" cy="458.1" rx="125" ry="11.8"/><ellipse class="cls-38" cx="209.7" cy="458.1" rx="124.7" ry="11.8"/><ellipse class="cls-39" cx="209.7" cy="458.1" rx="124.3" ry="11.8"/><ellipse class="cls-40" cx="209.7" cy="458.1" rx="124" ry="11.8"/><ellipse class="cls-41" cx="209.7" cy="458.1" rx="123.8" ry="11.8"/><ellipse class="cls-42" cx="209.7" cy="458.1" rx="123.5" ry="11.7"/><ellipse class="cls-43" cx="209.7" cy="458.1" rx="123.2" ry="11.7"/><ellipse class="cls-44" cx="209.7" cy="458.1" rx="122.9" ry="11.7"/><ellipse class="cls-45" cx="209.7" cy="458.1" rx="122.6" ry="11.7"/><ellipse class="cls-46" cx="209.7" cy="458.1" rx="122.2" ry="11.7"/><ellipse class="cls-47" cx="209.7" cy="458.1" rx="121.9" ry="11.5"/><ellipse class="cls-48" cx="209.7" cy="458.1" rx="121.6" ry="11.5"/><ellipse class="cls-49" cx="209.7" cy="458.1" rx="121.3" ry="11.5"/><ellipse class="cls-50" cx="209.7" cy="458.1" rx="120.9" ry="11.5"/><ellipse class="cls-51" cx="209.7" cy="458.1" rx="120.6" ry="11.5"/><ellipse class="cls-52" cx="209.7" cy="458.1" rx="120.5" ry="11.4"/><ellipse class="cls-53" cx="209.7" cy="458.1" rx="120.1" ry="11.4"/><ellipse class="cls-54" cx="209.7" cy="458.1" rx="119.8" ry="11.4"/><ellipse class="cls-55" cx="209.7" cy="458.1" rx="119.5" ry="11.4"/><ellipse class="cls-56" cx="209.7" cy="458.1" rx="119.2" ry="11.4"/><ellipse class="cls-57" cx="209.7" cy="458.1" rx="118.8" ry="11.2"/><ellipse class="cls-58" cx="209.7" cy="458.1" rx="118.5" ry="11.2"/><ellipse class="cls-59" cx="209.7" cy="458.1" rx="118.2" ry="11.2"/><ellipse class="cls-60" cx="209.7" cy="458.1" rx="117.9" ry="11.2"/><path class="cls-61" d="M327.3,458.1c0,6.3-52.8,11.3-117.6,11.3s-117.6-5-117.6-11.3,52.8-11.2,117.6-11.2S327.3,451.9,327.3,458.1Z"/><ellipse class="cls-62" cx="209.7" cy="458.1" rx="117.2" ry="11.1"/><ellipse class="cls-63" cx="209.7" cy="458.1" rx="117.1" ry="11.1"/><ellipse class="cls-64" cx="209.7" cy="458.1" rx="116.7" ry="11.1"/><ellipse class="cls-65" cx="209.7" cy="458.1" rx="116.4" ry="11.1"/><ellipse class="cls-66" cx="209.7" cy="458.1" rx="116.1" ry="11.1"/><ellipse class="cls-67" cx="209.7" cy="458.1" rx="115.8" ry="10.9"/><ellipse class="cls-68" cx="209.7" cy="458.1" rx="115.5" ry="10.9"/><ellipse class="cls-69" cx="209.7" cy="458.1" rx="115.1" ry="10.9"/><ellipse class="cls-70" cx="209.7" cy="458.1" rx="114.8" ry="10.9"/><ellipse class="cls-71" cx="209.7" cy="458.1" rx="114.5" ry="10.9"/><ellipse class="cls-72" cx="209.7" cy="458.1" rx="114.2" ry="10.8"/><ellipse class="cls-73" cx="209.7" cy="458.1" rx="113.8" ry="10.8"/><ellipse class="cls-74" cx="209.7" cy="458.1" rx="113.5" ry="10.8"/><ellipse class="cls-75" cx="209.7" cy="458.1" rx="113.4" ry="10.8"/><ellipse class="cls-76" cx="209.7" cy="458.1" rx="113" ry="10.8"/><ellipse class="cls-77" cx="209.7" cy="458.1" rx="112.7" ry="10.6"/><ellipse class="cls-78" cx="209.7" cy="458.1" rx="112.4" ry="10.6"/><ellipse class="cls-79" cx="209.7" cy="458.1" rx="112.1" ry="10.6"/><ellipse class="cls-80" cx="209.7" cy="458.1" rx="111.8" ry="10.6"/><ellipse class="cls-81" cx="209.7" cy="458.1" rx="111.4" ry="10.6"/><path class="cls-82" d="M320.8,458.1c0,6-49.8,10.5-111.1,10.5S98.6,463.9,98.6,458.1s49.7-10.4,111.1-10.4S320.8,452.2,320.8,458.1Z"/><ellipse class="cls-83" cx="209.7" cy="458.1" rx="110.8" ry="10.5"/><ellipse class="cls-84" cx="209.7" cy="458.1" rx="110.5" ry="10.5"/><ellipse class="cls-85" cx="209.7" cy="458.1" rx="110.1" ry="10.5"/><path class="cls-86" d="M319.7,458.1c0,5.8-49.2,10.5-110,10.5S99.9,463.8,99.9,458.1s49.2-10.4,110-10.4S319.7,452.2,319.7,458.1Z"/><path class="cls-87" d="M319.4,458.1c0,5.8-49.1,10.4-109.7,10.4S100,463.9,100,458.1s49.1-10.3,109.7-10.3S319.4,452.4,319.4,458.1Z"/><ellipse class="cls-88" cx="209.7" cy="458.1" rx="109.3" ry="10.3"/><ellipse class="cls-89" cx="209.7" cy="458.1" rx="109" ry="10.3"/><ellipse class="cls-90" cx="209.7" cy="458.1" rx="108.7" ry="10.3"/><ellipse class="cls-91" cx="209.7" cy="458.1" rx="108.4" ry="10.3"/><ellipse class="cls-92" cx="209.7" cy="458.1" rx="108" ry="10.2"/><ellipse class="cls-93" cx="209.7" cy="458.1" rx="107.7" ry="10.2"/><ellipse class="cls-94" cx="209.7" cy="458.1" rx="107.4" ry="10.2"/><ellipse class="cls-95" cx="209.7" cy="458.1" rx="107.1" ry="10.2"/><path class="cls-96" d="M316.6,458.1c0,5.7-47.9,10.2-106.7,10.2s-106.8-4.5-106.8-10.2S151,448,209.9,448,316.6,452.5,316.6,458.1Z"/><path class="cls-97" d="M316.3,458.1c0,5.7-47.7,10.1-106.6,10.1s-106.6-4.6-106.6-10.1S150.8,448,209.7,448,316.3,452.5,316.3,458.1Z"/><ellipse class="cls-98" cx="209.7" cy="458.1" rx="106.3" ry="10"/><ellipse class="cls-99" cx="209.7" cy="458.1" rx="105.9" ry="10"/><ellipse class="cls-100" cx="209.7" cy="458.1" rx="105.6" ry="10"/><ellipse class="cls-101" cx="209.7" cy="458.1" rx="105.3" ry="10"/><ellipse class="cls-102" cx="209.7" cy="458.1" rx="105" ry="10"/><ellipse class="cls-103" cx="209.7" cy="458.1" rx="104.7" ry="9.9"/><ellipse class="cls-104" cx="209.7" cy="458.1" rx="104.3" ry="9.9"/><ellipse class="cls-105" cx="209.7" cy="458.1" rx="104" ry="9.9"/><ellipse class="cls-106" cx="209.7" cy="458.1" rx="103.7" ry="9.9"/><path class="cls-107" d="M313.2,458.1c0,5.5-46.3,9.8-103.3,9.8s-103.4-4.4-103.4-9.8,46.3-9.7,103.4-9.7S313.2,452.7,313.2,458.1Z"/><ellipse class="cls-108" cx="209.7" cy="458.1" rx="103" ry="9.8"/><ellipse class="cls-109" cx="209.7" cy="458.1" rx="102.9" ry="9.8"/><path class="cls-110" d="M312.3,458.1c0,5.4-46,9.8-102.6,9.8s-102.6-4.4-102.6-9.8,46-9.7,102.6-9.7S312.3,452.7,312.3,458.1Z"/><path class="cls-111" d="M311.9,458.1c0,5.4-45.8,9.8-102.2,9.8s-102.2-4.3-102.2-9.8,45.8-9.7,102.2-9.7S311.9,452.7,311.9,458.1Z"/><path class="cls-112" d="M311.6,458.1c0,5.4-45.6,9.6-101.9,9.6s-101.9-4.2-101.9-9.6,45.6-9.6,101.9-9.6S311.6,452.7,311.6,458.1Z"/><ellipse class="cls-113" cx="209.7" cy="458.1" rx="101.6" ry="9.6"/><ellipse class="cls-114" cx="209.7" cy="458.1" rx="101.3" ry="9.6"/><ellipse class="cls-115" cx="209.7" cy="458.1" rx="100.9" ry="9.6"/><ellipse class="cls-116" cx="209.7" cy="458.1" rx="100.6" ry="9.6"/><path class="cls-117" d="M310,458.1c0,5.4-45,9.6-100.3,9.6s-100.3-4.2-100.3-9.6,45-9.6,100.3-9.6S310,452.8,310,458.1Z"/><ellipse class="cls-118" cx="209.7" cy="458.1" rx="100" ry="9.5"/><ellipse class="cls-119" cx="209.7" cy="458.1" rx="99.7" ry="9.5"/><ellipse class="cls-120" cx="209.7" cy="458.1" rx="99.5" ry="9.5"/><path class="cls-121" d="M308.9,458.1c0,5.2-44.4,9.5-99.2,9.5s-99.2-4.3-99.2-9.5,44.4-9.4,99.2-9.4S308.9,452.8,308.9,458.1Z"/><path class="cls-122" d="M308.6,458.1c0,5.2-44.2,9.5-98.9,9.5s-98.8-4.1-98.8-9.5,44.1-9.4,98.8-9.4S308.6,452.8,308.6,458.1Z"/><path class="cls-123" d="M308.2,458.1c0,5.2-44.2,9.4-98.5,9.4s-98.5-4.2-98.5-9.4,44-9.3,98.5-9.3S308.2,453,308.2,458.1Z"/><ellipse class="cls-124" cx="209.7" cy="458.1" rx="98.2" ry="9.3"/><ellipse class="cls-125" cx="209.7" cy="458.1" rx="97.9" ry="9.3"/><ellipse class="cls-126" cx="209.7" cy="458.1" rx="97.6" ry="9.3"/><ellipse class="cls-127" cx="209.7" cy="458.1" rx="97.2" ry="9.3"/><path class="cls-128" d="M306.6,458.1c0,5.1-43.4,9.2-96.9,9.2s-96.9-4.1-96.9-9.2,43.4-9.1,96.9-9.1S306.6,453,306.6,458.1Z"/><ellipse class="cls-129" cx="209.7" cy="458.1" rx="96.6" ry="9.2"/><ellipse class="cls-130" cx="209.7" cy="458.1" rx="96.3" ry="9.2"/><path class="cls-131" d="M305.8,458.1c0,5.1-43,9.2-96.1,9.2s-96.1-4.1-96.1-9.2,43-9.1,96.1-9.1S305.8,453,305.8,458.1Z"/><path class="cls-132" d="M305.5,458.1c0,5.1-42.9,9.1-95.8,9.1s-95.8-4.2-95.8-9.1,42.9-9,95.8-9S305.5,453.1,305.5,458.1Z"/><path class="cls-133" d="M305.2,458.1c0,5.1-42.8,9.1-95.5,9.1s-95.5-4-95.5-9.1,42.8-9,95.5-9S305.2,453.1,305.2,458.1Z"/><ellipse class="cls-134" cx="209.7" cy="458.1" rx="95.1" ry="9"/><path class="cls-135" d="M304.5,458.1c0,5.1-42.4,9.1-94.8,9.1s-94.8-4-94.8-9.1,42.4-9,94.8-9S304.5,453.1,304.5,458.1Z"/><path class="cls-136" d="M304.2,458.1c0,5.1-42.3,9.1-94.5,9.1s-94.5-4-94.5-9.1,42.3-9,94.5-9S304.2,453.1,304.2,458.1Z"/><path class="cls-137" d="M303.9,458.1c0,4.9-42.1,8.9-94.2,8.9s-94.2-4-94.2-8.9,42.3-8.8,94.2-8.8S303.9,453.1,303.9,458.1Z"/><path class="cls-138" d="M303.6,458.1c0,4.9-42.1,8.9-93.9,8.9s-93.8-4-93.8-8.9,42-8.8,93.8-8.8S303.6,453.1,303.6,458.1Z"/><ellipse class="cls-139" cx="209.7" cy="458.1" rx="93.5" ry="8.9"/><ellipse class="cls-140" cx="209.7" cy="458.1" rx="93.2" ry="8.9"/><ellipse class="cls-141" cx="209.7" cy="458.1" rx="92.9" ry="8.9"/><path class="cls-142" d="M302.4,458.1c0,4.9-41.4,8.9-92.5,8.9s-92.6-4-92.6-8.9,41.4-8.8,92.6-8.8S302.4,453.3,302.4,458.1Z"/><path class="cls-143" d="M302.1,458.1c0,4.9-41.3,8.8-92.4,8.8s-92.4-4-92.4-8.8,41.3-8.7,92.4-8.7S302.1,453.3,302.1,458.1Z"/><ellipse class="cls-144" cx="209.7" cy="458.1" rx="92.1" ry="8.7"/><path class="cls-145" d="M301.5,458.1c0,4.9-41.2,8.8-91.8,8.8s-91.8-3.9-91.8-8.8,41.2-8.7,91.8-8.7S301.5,453.3,301.5,458.1Z"/><path class="cls-146" d="M301.1,458.1c0,4.9-40.9,8.8-91.4,8.8s-91.4-3.9-91.4-8.8,40.9-8.7,91.4-8.7S301.1,453.3,301.1,458.1Z"/><path class="cls-147" d="M300.8,458.1c0,4.8-40.8,8.8-91.1,8.8s-91.1-3.9-91.1-8.8,40.8-8.7,91.1-8.7S300.8,453.3,300.8,458.1Z"/><path class="cls-148" d="M300.5,458.1c0,4.8-40.6,8.6-90.8,8.6s-90.8-3.8-90.8-8.6,40.7-8.5,90.8-8.5S300.5,453.3,300.5,458.1Z"/><ellipse class="cls-149" cx="209.7" cy="458.1" rx="90.5" ry="8.6"/><ellipse class="cls-150" cx="209.7" cy="458.1" rx="90.1" ry="8.6"/><ellipse class="cls-151" cx="209.7" cy="458.1" rx="89.8" ry="8.6"/><path class="cls-152" d="M299.2,458.1c0,4.8-40.2,8.6-89.5,8.6s-89.5-3.8-89.5-8.6,40.2-8.5,89.5-8.5S299.2,453.4,299.2,458.1Z"/><path class="cls-153" d="M299,458.1c0,4.8-40,8.5-89.1,8.5s-89.2-3.9-89.2-8.5,40-8.4,89.2-8.4S299,453.4,299,458.1Z"/><ellipse class="cls-154" cx="209.7" cy="458.1" rx="89" ry="8.4"/><ellipse class="cls-155" cx="209.7" cy="458.1" rx="88.7" ry="8.4"/><path class="cls-156" d="M298.1,458.1c0,4.6-39.5,8.5-88.4,8.5s-88.4-3.7-88.4-8.5,39.5-8.4,88.4-8.4S298.1,453.4,298.1,458.1Z"/><path class="cls-157" d="M297.7,458.1c0,4.6-39.3,8.5-88,8.5s-88-3.7-88-8.5,39.3-8.4,88-8.4S297.7,453.4,297.7,458.1Z"/><path class="cls-158" d="M297.4,458.1c0,4.6-39.3,8.3-87.7,8.3s-87.7-3.7-87.7-8.3,39.2-8.2,87.7-8.2S297.4,453.4,297.4,458.1Z"/><ellipse class="cls-159" cx="209.7" cy="458.1" rx="87.4" ry="8.3"/><path class="cls-160" d="M296.8,458.1c0,4.6-39,8.3-87.1,8.3s-87.1-3.7-87.1-8.3,39-8.2,87.1-8.2S296.8,453.4,296.8,458.1Z"/><path class="cls-161" d="M296.5,458.1c0,4.6-38.9,8.3-86.8,8.3s-86.8-3.7-86.8-8.3,38.9-8.2,86.8-8.2S296.5,453.6,296.5,458.1Z"/><path class="cls-162" d="M296.1,458.1c0,4.6-38.7,8.3-86.4,8.3s-86.4-3.7-86.4-8.3,38.7-8.2,86.4-8.2S296.1,453.6,296.1,458.1Z"/><path class="cls-163" d="M295.8,458.1c0,4.6-38.5,8.2-86.1,8.2s-86.1-3.7-86.1-8.2,38.5-8.1,86.1-8.1S295.8,453.6,295.8,458.1Z"/><ellipse class="cls-164" cx="209.7" cy="458.1" rx="85.8" ry="8.1"/><ellipse class="cls-165" cx="209.7" cy="458.1" rx="85.6" ry="8.1"/><path class="cls-166" d="M295,458.1c0,4.5-38.2,8.2-85.3,8.2s-85.3-3.7-85.3-8.2,38.2-8.1,85.3-8.1S295,453.6,295,458.1Z"/><path class="cls-167" d="M294.7,458.1c0,4.5-38.1,8.2-85,8.2s-85-3.6-85-8.2,38.1-8.1,85-8.1S294.7,453.6,294.7,458.1Z"/><path class="cls-168" d="M294.4,458.1c0,4.5-37.9,8-84.7,8s-84.7-3.5-84.7-8,37.9-7.9,84.7-7.9S294.4,453.6,294.4,458.1Z"/><path class="cls-169" d="M294,458.1c0,4.5-37.7,8-84.3,8s-84.3-3.5-84.3-8,37.7-7.9,84.3-7.9S294,453.7,294,458.1Z"/><path class="cls-170" d="M293.7,458.1c0,4.5-37.6,8-84,8s-84-3.5-84-8,37.6-7.9,84-7.9S293.7,453.7,293.7,458.1Z"/><path class="cls-171" d="M293.4,458.1c0,4.5-37.4,8-83.7,8s-83.7-3.5-83.7-8,37.4-7.9,83.7-7.9S293.4,453.7,293.4,458.1Z"/><path class="cls-172" d="M293.1,458.1c0,4.5-37.4,8-83.4,8s-83.4-3.5-83.4-8,37.4-7.9,83.4-7.9S293.1,453.7,293.1,458.1Z"/><path class="cls-173" d="M292.7,458.1c0,4.5-37.2,7.9-83,7.9s-83-3.6-83-7.9,37.2-7.8,83-7.8S292.7,453.7,292.7,458.1Z"/><path class="cls-174" d="M292.4,458.1c0,4.3-37.1,7.9-82.7,7.9s-82.7-3.6-82.7-7.9,37.1-7.8,82.7-7.8S292.4,453.7,292.4,458.1Z"/><ellipse class="cls-175" cx="209.7" cy="458.1" rx="82.4" ry="7.8"/><ellipse class="cls-176" cx="209.7" cy="458.1" rx="82.1" ry="7.8"/><path class="cls-177" d="M291.6,458.1c0,4.3-36.6,7.9-81.9,7.9s-81.9-3.6-81.9-7.9,36.6-7.8,81.9-7.8S291.6,453.7,291.6,458.1Z"/><path class="cls-178" d="M291.3,458.1c0,4.3-36.4,7.7-81.6,7.7s-81.6-3.4-81.6-7.7,36.5-7.6,81.6-7.6S291.3,453.9,291.3,458.1Z"/><path class="cls-179" d="M291,458.1c0,4.3-36.5,7.7-81.3,7.7s-81.3-3.4-81.3-7.7,36.5-7.6,81.3-7.6S291,453.9,291,458.1Z"/><path class="cls-180" d="M290.7,458.1c0,4.3-36.3,7.7-81,7.7s-80.9-3.4-80.9-7.7,36.2-7.6,80.9-7.6S290.7,453.9,290.7,458.1Z"/><path class="cls-181" d="M290.3,458.1c0,4.3-36.1,7.7-80.6,7.7s-80.6-3.4-80.6-7.7,36.1-7.6,80.6-7.6S290.3,453.9,290.3,458.1Z"/><path class="cls-182" d="M290,458.1c0,4.3-36,7.7-80.3,7.7s-80.3-3.4-80.3-7.7,36-7.6,80.3-7.6S290,453.9,290,458.1Z"/><path class="cls-183" d="M289.7,458.1c0,4.2-35.8,7.6-80,7.6s-80-3.4-80-7.6,35.8-7.5,80-7.5S289.7,453.9,289.7,458.1Z"/><path class="cls-184" d="M289.4,458.1c0,4.2-35.7,7.6-79.7,7.6s-79.7-3.4-79.7-7.6,35.7-7.5,79.7-7.5S289.4,453.9,289.4,458.1Z"/><path class="cls-185" d="M289,458.1c0,4.2-35.4,7.6-79.3,7.6s-79.3-3.4-79.3-7.6,35.4-7.5,79.3-7.5S289,453.9,289,458.1Z"/><path class="cls-186" d="M288.7,458.1c0,4.2-35.5,7.6-79,7.6s-79-3.4-79-7.6,35.5-7.5,79-7.5S288.7,453.9,288.7,458.1Z"/><path class="cls-187" d="M288.6,458.1c0,4.2-35.4,7.6-78.7,7.6s-78.7-3.4-78.7-7.6,35.3-7.5,78.7-7.5S288.6,454,288.6,458.1Z"/><path class="cls-188" d="M288.2,458.1c0,4.2-35.1,7.4-78.5,7.4s-78.5-3.4-78.5-7.4,35.1-7.3,78.5-7.3S288.2,454,288.2,458.1Z"/><path class="cls-189" d="M287.9,458.1c0,4.2-35,7.4-78.2,7.4s-78.2-3.4-78.2-7.4,35-7.3,78.2-7.3S287.9,454,287.9,458.1Z"/><ellipse class="cls-190" cx="209.7" cy="458.1" rx="77.9" ry="7.4"/><path class="cls-191" d="M287.3,458.1c0,4.2-34.7,7.4-77.6,7.4s-77.6-3.2-77.6-7.4,34.7-7.3,77.6-7.3S287.3,454,287.3,458.1Z"/><path class="cls-192" d="M286.9,458.1c0,4-34.5,7.4-77.2,7.4s-77.2-3.2-77.2-7.4,34.5-7.3,77.2-7.3S286.9,454,286.9,458.1Z"/></g><path class="cls-193" d="M167.8,325.6,191.3,437l-16.4-.7-10.2-56.8c-5.3-23.3-27.6-63.5-27.6-63.5Z"/><path class="cls-193" d="M206.6,327l17.6,114.5,15.5-5.2-8.2-56.9c-2.3-23.8,0-58.7,0-58.7Z"/><path class="cls-194" d="M128.1,161.9c-2.1,20.6-5.8,119.5-5.2,120.6l116.2,15.3c-.2-3.9,17.4-122.1,15.4-128.9l-60.4,15.5Z"/><polygon class="cls-195" points="153.9 94.7 188.9 95.9 189.1 87.2 152 88.3 153.9 94.7"/><polygon class="cls-196" points="155.2 92.3 190.2 93.5 190.2 84.8 153.1 86 155.2 92.3"/><polygon class="cls-195" points="236.5 104.9 205 95.7 207.8 88.1 240.3 99.9 236.5 104.9"/><polygon class="cls-196" points="234.9 102.5 203.6 93.4 206.2 85.7 238.7 97.5 234.9 102.5"/><path class="cls-193" d="M122.9,282.5s-.3,26.6,9.4,34.1,65.6,27.3,97.9,6.5c6.9-5.5,9.8-19,9-27.2Z"/><path class="cls-197" d="M180.5,109.6c-.5,4.6-3.5,8-6.6,7.7s-5.2-4.3-4.5-8.7,3.5-8,6.6-7.7S181,105,180.5,109.6Z"/><ellipse class="cls-197" cx="212.1" cy="112.1" rx="8.3" ry="5.3" transform="translate(72.9 307.5) rotate(-82.4)"/><path d="M178.6,108c-.5,3.8-2.4,6.6-4.4,6.5s-3.2-3.4-2.7-7.2,2.4-6.7,4.3-6.5S179.1,104.3,178.6,108Z"/><path d="M215.8,111.2c-.5,3.9-2.4,6.7-4.3,6.6s-3.1-3.4-2.8-7.3,2.5-6.6,4.4-6.5S216.3,107.4,215.8,111.2Z"/><path class="cls-196" d="M176.2,434.1l-24.7,7.1s-19.5-2.9-23.7,7.2a74.1,74.1,0,0,0-3.4,9l69.5-.3c.3-5.7-1.8-21.4-1.8-21.4Z"/><path class="cls-196" d="M239.4,434.1l24.6,7.1s19.6-2.9,23.8,7.2c2.5,6.6,3.3,9,3.3,9l-69.5-.3c-.3-5.7,1.8-21.4,1.8-21.4Z"/><polygon class="cls-198" points="218.9 288.1 226.3 307 230.5 314.4 272.9 300.5 282.9 292.1 270.7 271.3 270.7 271.3 270.7 271.3 269.2 268.9 264.5 269.5 242.9 262.1 242 272.9 218.9 288.1"/><path class="cls-199" d="M270.7,271.3h0l-1.5-2.4-4.7.6-8.7-2.4c1.5,3.7,10.2,25.1,15,34l2.1-.7,5.5-4.6c1.4-1.6,2.7-3.3,4-4.7Z"/><path class="cls-200" d="M253.2,180.1c-.1,2.4-.3,5.9-.8,10.2,41.8,28.2,29.1,51.3,6.3,74.7,0,0,11.3,28.3,16.3,36.4C353.5,247.9,271.5,191.5,253.2,180.1Z"/><path class="cls-201" d="M260.5,83c0-10.2-.8-18.1-2.3-23.3l-20.6-.8h-3.5c-22.9-.9-46-1.8-68.9-2.5-2.3,0-4.4-.2-6.6-.3l-24.7-.9A165,165,0,0,0,131,76.2c-.8,8.9-1.3,19.4-1.9,31.1,3.5-3.9,5.3-14.7,5.8-16.9,1.8-8.3,3.2-16.7,9.3-23.3,12.6-13.5,21.5-1.4,32.8,6.2a66.9,66.9,0,0,0,38.8,11.4A72.2,72.2,0,0,0,236.1,81c3.8-1.2,10.4-5.9,14.6-4.8,5.8,1.7,5.6,11.4,6.1,15.7s-1,13.9,2.1,15.7l.8.4C260.3,98.8,260.7,90.4,260.5,83Z"/><path class="cls-196" d="M270.5,73.6a59.8,59.8,0,0,1-2.6,17.7c-1.1,3.8-3.4,12.4-7.6,14.3-2.2-3.8-.4-8.7-.9-12.8s-.8-9.2-2.9-13c-4.5-8-13.4-13.8-9.7-23.5,2.7-7.1,11.1-5.6,16.4-1.3S270.3,67.2,270.5,73.6Z"/><path class="cls-202" d="M268.6,62.5a16.9,16.9,0,0,0-5.4-7.5,12.9,12.9,0,0,0-4.8-2.8c-5.3,2.9-9.4,8.7-11.1,14.3,2.2,4.6,6.4,8.6,9.2,13.3s2.5,8.7,2.9,13-1.3,8.8.8,12.5c4.7-6.3,3.7-19.2,2.1-24.9-1.2-4-3.1-7.1-1.2-11.3A16.4,16.4,0,0,1,268.6,62.5Z"/><path class="cls-196" d="M152.3,31.3c-3.4,5-4.5,11.8-2.1,17.3s9.4,7.2,15.2,9.6a87.4,87.4,0,0,1,17.2,9.5c5.7,4.1,11.3,8.5,18.4,10.5,10.6,2.9,22.2,2.6,33.1.7,27.2-4.9,45.3-42.1,28.2-64.3,1.9,12.1-6.3,14.4-15.7,19.8,9.5-9.7,2.3-28.8-11.1-34.4,16.6,34-26.3,27.3-47.2,25C176.3,23.8,159.7,20.5,152.3,31.3Z"/><path class="cls-196" d="M137.6,38.3a20.7,20.7,0,0,1,10.5,1.9c3.9,1.8,7.9,3.4,11.1,5.9s7.1,7.1,6.3,10-2.9,1.2-5,1.1c-3.9-.2-8.4,0-11.9,1.5-11.9,5.3-15.2,19.8-17.1,30.5-.5,2.4-.3,5.7-2.3,7.6-5.1-3.4-5-14.2-6.1-19.5-2.3-11-2.7-26,5.7-35A12.9,12.9,0,0,1,137.6,38.3Z"/><path class="cls-202" d="M262.1,14.9a21.3,21.3,0,0,1,.3,4.2c1.2,4.2,2.5,8.4,1.8,13.3a52.2,52.2,0,0,1-6.1,17.5c-4.2,7.1-9.9,14.7-18.4,17.9s-18.1,5.5-28.4,3.3-17.9-6.8-27.1-10.5-17.7-10.5-27.9-9.8a18.9,18.9,0,0,0-4,.8c3.2,3.5,8.5,4.8,13.2,6.8a80.5,80.5,0,0,1,17.3,9.4c5.6,4.2,11.3,8.6,18.4,10.5,10.6,3,22.2,2.7,33,.7C261.1,74.2,284.5,34.1,262.1,14.9Z"/><path class="cls-202" d="M156.2,50.8c-8.3.6-18.6,6.2-22.3,13.2-5.3,9.7-3.4,20.4-3.4,30.9.7-1.8.7-4,1.2-5.7,1.9-10.6,5.1-25.2,17-30.5,3.4-1.5,7.9-1.7,12-1.5,2.1.1,4.3,1.2,5-1.1s-.3-2.8-1.3-4.4A28.3,28.3,0,0,0,156.2,50.8Z"/><path class="cls-203" d="M143.3,47.4c5-.3,7.1-4.1,1.9-6.2s-11.8.9-14.7,5.3-1.7,7.7-2.6,12.2C128.9,51.1,135.8,47.9,143.3,47.4Z"/><path class="cls-203" d="M221.5,51.9c-10.7,4.4-18.4,1.6-28.4-2.4-4.4-1.8-8.7-3-13.1-4.9-8.4-3.4-16.7-7.2-25.9-3.4-.4-4.7,2.7-9.3,6.7-12.1a19.9,19.9,0,0,1,12-3.2c6.7.3,14.3,5.3,20.6,2.3-3.5,2.8-7.1,4.3-11.8,3.9s-9.6-2.3-11.9,1.4c8.4-3.8,22.1,7,29.2,9.6C209.7,47.3,222,51,232,43,228.2,47,226.6,49.8,221.5,51.9Z"/><path class="cls-204" d="M146.2,120.7s51.6,26.6,93,4.7c1.3,23.4-17.7,49.8-51.1,46.7C159.6,169.5,144.7,152.2,146.2,120.7Z"/><path class="cls-205" d="M161.2,162.4c6.7,5.4,15.8,8.7,26.9,9.7s21.3-1.3,29.2-5.9c-7.8-8.1-10.2-10.9-26.3-11.1C169.7,155.1,166.8,159.7,161.2,162.4Z"/><path class="cls-3" d="M146.2,120.7a37.5,37.5,0,0,0,0,6.7c9.3,5.4,49.5,26.7,92.4,7.8a39.4,39.4,0,0,0,.6-9.6C197.8,147.3,146.2,120.7,146.2,120.7Z"/><path class="cls-206" d="M146.2,120.7a34.2,34.2,0,0,0,0,6.4c4.8-5.1,19.8,6.3,47.2,8.5s42.4-8.5,45.3-.7a50.7,50.7,0,0,0,.7-9.5C197.8,147.3,146.2,120.7,146.2,120.7Z"/><path class="cls-3" d="M160.4,161.6c6.9,5.9,16.1,9.5,27.7,10.5,13.5,1.3,24.8-2.3,33.2-8.6C195.8,172.1,166.6,160.6,160.4,161.6Z"/><polygon class="cls-199" points="185.4 262.5 193.1 274.7 215.3 252.8 203.9 199.9 202.6 185.3 185.4 262.5"/><polygon class="cls-196" points="179.9 191.6 165.8 247 187.8 271.1 211 249.7 200.7 192.2 179.9 191.6"/><polygon class="cls-196" points="178.3 179.5 177.3 191.8 202.8 194.7 203.6 180.1 178.3 179.5"/><polygon class="cls-207" points="201.6 197.1 200.7 192.2 179.9 191.6 179.1 194.9 201.6 197.1"/><polygon class="cls-196" points="176.2 181.6 175.4 192.9 205.2 195.9 206 182.5 176.2 181.6"/><path class="cls-208" d="M206,221.9l-28.4-22-3.5,14,34.6,23.7Zm-34.7,3.8-1.9,7.9,31.1,25.8,7.9-7.2Z"/><path class="cls-209" d="M201,215.3a3.4,3.4,0,0,1-3.4,3.2l-24.7-1.2a3.3,3.3,0,0,1-3-3.5h0a3.4,3.4,0,0,1,3.4-3.3l24.6,1.2a3.3,3.3,0,0,1,3.1,3.6Z"/><path class="cls-3" d="M183.6,214.5c0,1.2-.7,2.1-1.2,2.1l-7.5-.5c-.5,0-1-1-.8-2.2h0c0-1.2.6-2,1.1-2l7.6.4c.5,0,.8,1,.8,2.2Z"/><path class="cls-210" d="M31.2,219s.5,33.9,57.7,23.4c54.5-10,31-74-4.7-69.2Z"/><path class="cls-201" d="M99.4,216.9c-4.7-5.8-31.1-7.7-56.4-8.1L31.2,219s1.8,13.1,16.1,21.1c6-.9,19-3.9,19.4-13C84.7,231.4,108.6,228.6,99.4,216.9Z"/><path class="cls-193" d="M101.3,215.9c.2,3.6-2.9,6.7-6.9,6.9l-63,2.2a7,7,0,0,1-7.6-6.5l-4.5-108a6.8,6.8,0,0,1,6.9-6.9l63-2.2c4.1-.2,7.5,2.6,7.6,6.3Z"/><ellipse class="cls-211" cx="62.3" cy="212.7" rx="7.3" ry="6.6"/><path class="cls-193" d="M68.1,212.6c-.1-3-2.9-5.3-6.1-5.2a5.9,5.9,0,0,0-5.7,5.5,5.7,5.7,0,0,0,6,5.2C65.7,218.1,68.3,215.6,68.1,212.6Z"/><path class="cls-212" d="M96.5,199.5a3.1,3.1,0,0,1-3.2,3.1l-62.9,2a3.2,3.2,0,0,1-3.4-2.9l-3.4-85.1a3.1,3.1,0,0,1,3.2-3.1l62.9-2.1a3.2,3.2,0,0,1,3.4,3Z"/><path class="cls-211" d="M64.1,107.4a1.6,1.6,0,0,1-1.6,1.6l-8.7.3a1.6,1.6,0,0,1-1.8-1.4h0a1.6,1.6,0,0,1,1.6-1.7l8.7-.3a1.6,1.6,0,0,1,1.8,1.5Z"/><path class="cls-213" d="M94.1,139.2l-1-24.8a3.2,3.2,0,0,0-3.4-3l-62.9,2.1a3.2,3.2,0,0,0-3.2,3.1L26,176.3C39.9,168.7,69.2,152.5,94.1,139.2Z"/><path class="cls-201" d="M58.6,203.7c-.3-6.3-4.3-12.7-10.8-13.4,15.6-26-17.4-23.1-17.4-23.1l8.2,37.3Z"/><path class="cls-210" d="M23,219.4l23.8-5.5c7.3-2.2,12-20.4.2-22.7s-32.1,4.1-36.3,5.6S-1.7,215.4,23,219.4Z"/><path class="cls-210" d="M31,238.3c9.1,1.6,22,1.3,22,1.3,6.7-.1,16.1-14.3,6.7-19.2s-28.5-4.4-32.5-4.3S10.4,234.5,31,238.3Z"/><path class="cls-210" d="M16.2,195.8l22.7-5.4c7-2,11.3-20.2.2-22.6s-30.6,3.4-34.5,5.4S-7.3,191.6,16.2,195.8Z"/><path class="cls-210" d="M121.2,207.4c-11-33.2,16.9-44.6-12.8-48.6-24.2-3.2-15.6,37-5.6,43.9"/></g></g></svg>